<?xml version="1.0" encoding="UTF-8" standalone="no"?>
<!-- Created with Inkscape (http://www.inkscape.org/) -->

<svg
   width="43.823776"
   height="43.823769"
   viewBox="0 0 5.8989958 5.8989949"
   version="1.1"
   id="svg2484"
   inkscape:version="1.2.1 (9c6d41e410, 2022-07-14, custom)"
   sodipodi:docname="barbell.svg"
   xmlns:inkscape="http://www.inkscape.org/namespaces/inkscape"
   xmlns:sodipodi="http://sodipodi.sourceforge.net/DTD/sodipodi-0.dtd"
   xmlns="http://www.w3.org/2000/svg"
   xmlns:svg="http://www.w3.org/2000/svg">
  <sodipodi:namedview
     id="namedview2486"
     pagecolor="#505050"
     bordercolor="#eeeeee"
     borderopacity="1"
     inkscape:showpageshadow="0"
     inkscape:pageopacity="0"
     inkscape:pagecheckerboard="0"
     inkscape:deskcolor="#505050"
     inkscape:document-units="px"
     showgrid="false"
     inkscape:zoom="3.3638608"
     inkscape:cx="37.902876"
     inkscape:cy="37.159682"
     inkscape:window-width="1364"
     inkscape:window-height="751"
     inkscape:window-x="0"
     inkscape:window-y="15"
     inkscape:window-maximized="1"
     inkscape:current-layer="layer1" />
  <defs
     id="defs2481" />
  <g
     inkscape:label="Слой 1"
     inkscape:groupmode="layer"
     id="layer1"
     transform="translate(-15.005956,56.453541)">
    <path
       id="rect1727-7"
       style="fill:none;stroke:#ececec;stroke-width:0.21679;stroke-linejoin:round"
       d="m 15.114351,-56.345146 h 5.682206 v 5.682205 h -5.682206 z" />
    <path
       style="fill:#f9f9f9;stroke-width:0.00628868"
       d="m 16.857744,-51.133824 c -0.03785,-0.02345 -0.03622,0.007 -0.03592,-0.665951 2.24e-4,-0.465971 0.002,-0.61942 0.0078,-0.632155 0.0041,-0.0093 0.127717,-0.143427 0.274543,-0.298169 0.146836,-0.154742 0.273204,-0.288757 0.280831,-0.297818 l 0.01384,-0.01648 -0.04365,-0.216759 c -0.153297,-0.761515 -0.303542,-1.562142 -0.348103,-1.854965 -0.0087,-0.05707 -0.01735,-0.112958 -0.01923,-0.124201 l -0.0036,-0.0204 h -0.08461 -0.08461 l -1.53e-4,0.215385 c -1.42e-4,0.239754 -0.001,0.243997 -0.04396,0.285995 -0.03587,0.0349 -0.04635,0.03632 -0.270315,0.03632 -0.185985,0 -0.206482,-10e-4 -0.227692,-0.0116 -0.04508,-0.02244 -0.07232,-0.05988 -0.07954,-0.109351 l -0.0041,-0.02783 -0.03597,-0.0025 c -0.0653,-0.0046 -0.12147,-0.04279 -0.151003,-0.102758 -0.01313,-0.02666 -0.0144,-0.03892 -0.01628,-0.156268 l -0.002,-0.127351 h -0.100158 -0.100152 v -0.07546 -0.07546 h 0.100152 0.100158 l 0.002,-0.127346 c 0.002,-0.124451 0.0025,-0.128083 0.01908,-0.159656 0.03134,-0.05943 0.09144,-0.09661 0.156146,-0.09661 h 0.02946 l 0.0041,-0.03246 c 0.0046,-0.03984 0.02681,-0.07472 0.06197,-0.098 l 0.0262,-0.01735 H 16.504 16.725027 l 0.0262,0.01735 c 0.0144,0.0095 0.03404,0.02915 0.04355,0.04355 l 0.01735,0.0262 0.002,0.222146 0.002,0.222151 h 0.07748 0.07748 l 0.0036,-0.02579 c 0.0041,-0.03185 0.04548,-0.08701 0.08753,-0.117227 0.08297,-0.0596 0.193896,-0.06126 0.276313,-0.0041 0.03002,0.02081 0.06964,0.07879 0.08061,0.11799 l 0.0082,0.0292 h 0.548297 0.548297 l 0.01053,-0.03343 c 0.02111,-0.06702 0.0774,-0.12413 0.144175,-0.146312 0.0468,-0.01557 0.124558,-0.01017 0.168992,0.01165 0.06787,0.03337 0.131385,0.103836 0.131385,0.145772 v 0.02228 h 0.07861 0.07861 v -0.20837 c 0,-0.137938 0.0025,-0.216468 0.0072,-0.232326 0.0098,-0.03287 0.0378,-0.06499 0.07026,-0.0807 0.02584,-0.01252 0.03704,-0.01312 0.232891,-0.01312 0.15841,0 0.210399,0.002 0.225982,0.0085 0.0496,0.02076 0.08585,0.07081 0.08613,0.118865 l 1.47e-4,0.02361 h 0.03032 c 0.04854,0 0.08813,0.01699 0.124751,0.05363 0.0466,0.0466 0.05245,0.07063 0.05245,0.21478 v 0.115197 h 0.100621 0.100616 v 0.07547 0.07546 H 20.067051 19.96643 v 0.119246 c 0,0.104701 -0.0015,0.123444 -0.01287,0.153597 -0.02401,0.06413 -0.08486,0.108563 -0.155551,0.113533 l -0.03597,0.0025 -0.0041,0.02849 c -0.0055,0.038 -0.02752,0.07566 -0.05544,0.09501 -0.03658,0.02533 -0.07979,0.02956 -0.279356,0.02732 -0.162963,-0.002 -0.185582,-0.0036 -0.206451,-0.01374 -0.03139,-0.01562 -0.06539,-0.05432 -0.07359,-0.08381 -0.0041,-0.0147 -0.0067,-0.105119 -0.0067,-0.233126 l -2.5e-5,-0.209097 h -0.08451 -0.08451 l -0.0041,0.02986 c -0.03765,0.267797 -0.173586,1.002912 -0.344638,1.863644 l -0.06492,0.326705 0.279274,0.29384 c 0.153607,0.161615 0.283319,0.302951 0.288254,0.314077 0.0076,0.01709 0.009,0.116245 0.009,0.63421 0,0.555231 -0.001,0.616042 -0.01028,0.635634 -0.01893,0.03984 -0.01979,0.03999 -0.285603,0.03999 h -0.24069 l -0.02137,-0.02137 -0.02137,-0.02137 v -0.355663 -0.355663 l -0.284519,-0.221429 c -0.156482,-0.121785 -0.287368,-0.221389 -0.290853,-0.221338 -0.0036,4.6e-5 -0.134387,0.09982 -0.290894,0.221714 l -0.284565,0.221628 v 0.355378 0.355373 l -0.02137,0.02137 -0.02137,0.02137 -0.241173,-1.42e-4 c -0.215935,-1.53e-4 -0.242975,-10e-4 -0.258426,-0.01089 z m 1.26871,-2.548439 c 0.214627,-0.05775 0.378862,-0.2232 0.434672,-0.437893 0.01302,-0.05001 0.01623,-0.07738 0.01643,-0.14069 5.08e-4,-0.159219 -0.0493,-0.292924 -0.153247,-0.4101 l -0.03744,-0.04223 0.05373,-0.270269 c 0.02956,-0.148652 0.05372,-0.271857 0.05372,-0.273795 0,-0.002 -0.233777,-0.0036 -0.519502,-0.0036 h -0.519496 l 0.0036,0.01414 c 0.002,0.0078 0.0264,0.13081 0.05447,0.273393 l 0.05099,0.259239 -0.04182,0.04889 c -0.07064,0.08265 -0.11681,0.174761 -0.138305,0.27587 -0.01246,0.05857 -0.01424,0.170981 -0.0036,0.226954 0.04721,0.248678 0.239225,0.441444 0.488066,0.489943 0.06371,0.01241 0.193254,0.0074 0.257835,-0.01 z m -0.254692,-0.06596 c -0.198301,-0.03958 -0.356701,-0.190517 -0.409239,-0.389993 -0.01857,-0.07046 -0.01857,-0.187379 0,-0.257836 0.06278,-0.238345 0.269343,-0.399334 0.512399,-0.399334 0.247553,0 0.46214,0.170945 0.517075,0.411911 0.01597,0.07022 0.01455,0.17791 -0.0036,0.245259 -0.05477,0.206197 -0.216632,0.355887 -0.424655,0.392725 -0.0493,0.0087 -0.141327,0.0074 -0.192222,-0.0025 z"
       id="path1743-4" />
  </g>
</svg>
