<?xml version="1.0" encoding="UTF-8" standalone="no"?>
<!-- Created with Inkscape (http://www.inkscape.org/) -->

<svg
   width="48.746559"
   height="50.979004"
   viewBox="0 0 6.5616379 6.8621411"
   version="1.1"
   id="svg2484"
   inkscape:version="1.2.1 (9c6d41e410, 2022-07-14, custom)"
   sodipodi:docname="calendar.svg"
   xmlns:inkscape="http://www.inkscape.org/namespaces/inkscape"
   xmlns:sodipodi="http://sodipodi.sourceforge.net/DTD/sodipodi-0.dtd"
   xmlns="http://www.w3.org/2000/svg"
   xmlns:svg="http://www.w3.org/2000/svg">
  <sodipodi:namedview
     id="namedview2486"
     pagecolor="#505050"
     bordercolor="#eeeeee"
     borderopacity="1"
     inkscape:showpageshadow="0"
     inkscape:pageopacity="0"
     inkscape:pagecheckerboard="0"
     inkscape:deskcolor="#505050"
     inkscape:document-units="px"
     showgrid="false"
     inkscape:zoom="3.3638608"
     inkscape:cx="-40.281096"
     inkscape:cy="13.674763"
     inkscape:window-width="1364"
     inkscape:window-height="751"
     inkscape:window-x="0"
     inkscape:window-y="15"
     inkscape:window-maximized="1"
     inkscape:current-layer="layer1" />
  <defs
     id="defs2481" />
  <g
     inkscape:label="Слой 1"
     inkscape:groupmode="layer"
     id="layer1"
     transform="translate(-25.51191,53.316488)">
    <path
       style="fill:#f9f9f9;stroke-width:0.0190952"
       d="m 30.306641,-46.467009 c -0.05565,-0.01 -0.176252,-0.04635 -0.26799,-0.0808 -0.614012,-0.230632 -1.014252,-0.846619 -0.97051,-1.493649 0.03724,-0.551039 0.353099,-1.022921 0.843215,-1.259766 0.239063,-0.115522 0.392141,-0.150494 0.658783,-0.150494 0.266647,0 0.419725,0.03495 0.658788,0.150494 0.94351,0.455949 1.137238,1.719469 0.374019,2.439449 -0.167945,0.158425 -0.344715,0.263004 -0.573704,0.339394 -0.151746,0.05062 -0.215803,0.0613 -0.400999,0.06688 -0.12123,0.0036 -0.265944,-0.0015 -0.321602,-0.0115 z m 0.560238,-0.257072 c 0.462409,-0.117145 0.840722,-0.50634 0.937151,-0.964115 0.04218,-0.200291 0.02651,-0.478919 -0.03739,-0.665178 -0.131487,-0.3831 -0.4232,-0.671435 -0.806356,-0.797 -0.15205,-0.04981 -0.195365,-0.05571 -0.39967,-0.05427 -0.194613,0.0015 -0.252783,0.0094 -0.386005,0.05313 -0.371658,0.122044 -0.669619,0.418718 -0.801549,0.798073 -0.06631,0.190691 -0.08105,0.468505 -0.03566,0.672478 0.08007,0.359891 0.33715,0.690427 0.660156,0.848781 0.08914,0.0437 0.209331,0.09182 0.267095,0.106935 0.140614,0.03678 0.459174,0.03744 0.60226,0.001 z m -0.434795,-1.077048 c -0.05439,-0.04859 -0.06245,-0.06802 -0.0637,-0.153383 l -0.0015,-0.09774 -0.328063,-0.330012 c -0.180429,-0.181502 -0.328059,-0.338467 -0.328059,-0.348815 0,-0.02859 0.04218,-0.06464 0.07564,-0.06464 0.01638,0 0.174537,0.144918 0.351425,0.32204 l 0.321628,0.322045 0.112301,-0.002 0.112307,-0.002 0.234469,-0.233919 c 0.232123,-0.231579 0.300362,-0.274039 0.327351,-0.203709 0.0064,0.01658 0.0116,0.0352 0.0116,0.04131 0,0.0061 -0.108959,0.121241 -0.24213,0.255836 l -0.242135,0.244715 -0.0015,0.0975 c -0.0015,0.0851 -0.0093,0.104589 -0.06369,0.153155 -0.0466,0.04167 -0.08133,0.05565 -0.13806,0.05565 -0.05672,0 -0.09143,-0.01399 -0.138055,-0.05565 z m -4.359269,0.702729 c -0.171195,-0.02091 -0.3366,-0.124298 -0.437928,-0.273765 -0.132662,-0.195686 -0.126303,-0.05957 -0.120579,-2.580235 l 0.0051,-2.270905 0.05499,-0.119048 c 0.06383,-0.138187 0.19798,-0.273754 0.332316,-0.335817 0.08436,-0.03897 0.122996,-0.04197 0.60889,-0.04752 l 0.518809,-0.0059 0.0063,-0.236096 c 0.0059,-0.218748 0.0097,-0.239693 0.05233,-0.285023 0.09223,-0.09806 0.258207,-0.08043 0.328526,0.0349 0.02946,0.04833 0.03587,0.09715 0.03592,0.273632 l 7.1e-5,0.214816 h 1.000944 1.000938 l 0.0064,-0.237206 c 0.0059,-0.219908 0.0097,-0.240777 0.05235,-0.286137 0.09904,-0.105301 0.282454,-0.07531 0.336941,0.05509 0.01811,0.0433 0.02757,0.13486 0.02757,0.266092 v 0.200067 l 0.568082,0.0058 c 0.545682,0.0056 0.571852,0.0075 0.66356,0.0497 0.130667,0.06002 0.263197,0.195762 0.327982,0.335939 l 0.05392,0.116677 0.0052,1.379632 c 0.0025,0.758793 3.51e-4,1.379628 -0.0052,1.379628 -0.0058,0 -0.07045,-0.03017 -0.143702,-0.06707 l -0.133191,-0.06707 v -0.82085 -0.820851 H 28.50783 25.796316 v 1.795711 c 0,1.727537 0.0015,1.798396 0.03632,1.866553 0.04594,0.08958 0.107209,0.146892 0.197232,0.184504 0.06166,0.02574 0.250423,0.02956 1.471977,0.02956 h 1.401244 l 0.05538,0.127854 c 0.03042,0.07032 0.05753,0.132616 0.06016,0.138442 0.0066,0.01455 -2.826401,0.01348 -2.94584,-10e-4 z m 5.146562,-4.77004 -0.0095,-0.342187 -0.05728,-0.08102 c -0.108715,-0.15376 -0.136355,-0.159982 -0.739938,-0.166682 l -0.529891,-0.0059 v 0.221317 c 0,0.254014 -0.02396,0.335552 -0.112123,0.381131 -0.09521,0.04925 -0.169506,0.03851 -0.243051,-0.035 l -0.06492,-0.06492 v -0.250148 -0.250148 h -1.0025 -1.002496 v 0.230093 c 0,0.257408 -0.01999,0.322498 -0.11395,0.371084 -0.08718,0.04508 -0.163579,0.03637 -0.234239,-0.02671 l -0.06236,-0.05567 -0.0063,-0.260837 -0.0063,-0.260831 -0.4822,0.0062 -0.4822,0.0062 -0.09244,0.05729 c -0.06067,0.0376 -0.107718,0.08621 -0.136885,0.141443 -0.04146,0.07847 -0.04447,0.105901 -0.04447,0.405775 v 0.321612 l 2.716287,3.6e-5 2.716296,3.1e-5 z m -3.971803,2.40439 v -0.400998 h -0.420092 -0.420097 v -0.391454 -0.391448 h 0.420097 0.420092 v 0.391448 0.391454 h 0.410547 0.410547 v -0.391454 -0.391448 h 0.420097 0.420091 v 0.391077 0.391082 l -0.415319,0.0051 -0.41532,0.0051 -0.0051,0.396226 -0.0051,0.396221 H 27.657861 27.2477 Z m 0.0015,1.190306 h -0.420092 -0.420096 v -0.391454 -0.391448 h 0.420096 0.420092 v 0.391448 0.391454 m 2.508741,-0.789827 h -0.420092 -0.420096 v -0.391453 -0.391449 h 0.420096 0.420092 v 0.391449 0.391453 m 0.848017,-0.808096 H 30.185767 29.76567 v -0.391453 -0.391449 h 0.420097 0.420091 v 0.391449 0.391453"
       id="path2577-6"
       sodipodi:nodetypes="ssssscsscsscscsccsssscccccsssscccssssccsscccsscssscscsscccscsscscsccsscccccscssccsccccsscssscccccssscccccsssccccccccccccccccccccccccccccccccccccccccccccccc" />
    <path
       d="m 28.902644,-48.273744 h -0.420091 -0.420097 v -0.391454 -0.391448 h 0.420097 0.420091 v 0.391448 0.391454"
       style="fill:#f9f9f9;stroke-width:0.0190952"
       id="path2742-3" />
  </g>
</svg>
