<?xml version="1.0" encoding="UTF-8" standalone="no"?>
<!-- Created with Inkscape (http://www.inkscape.org/) -->

<svg
   version="1.1"
   id="svg637"
   xml:space="preserve"
   width="48.746559"
   height="50.978844"
   xmlns:inkscape="http://www.inkscape.org/namespaces/inkscape"
   xmlns:sodipodi="http://sodipodi.sourceforge.net/DTD/sodipodi-0.dtd"
   xmlns="http://www.w3.org/2000/svg"
   xmlns:svg="http://www.w3.org/2000/svg"><defs
     id="defs641" /><sodipodi:namedview
     id="namedview639"
     pagecolor="#ffffff"
     bordercolor="#666666"
     borderopacity="1.0"
     inkscape:showpageshadow="2"
     inkscape:pageopacity="0.0"
     inkscape:pagecheckerboard="0"
     inkscape:deskcolor="#d1d1d1" /><inkscape:clipboard
     style="font-variation-settings:normal;opacity:1;vector-effect:none;fill:#00ff00;fill-opacity:1;stroke-width:0.14185853;stroke-linecap:butt;stroke-linejoin:miter;stroke-miterlimit:4;stroke-dasharray:none;stroke-dashoffset:0;stroke-opacity:1;-inkscape-stroke:none;stop-color:#000000;stop-opacity:1"
     min="1077.2522,2030.4575"
     max="1125.9988,2081.4364"
     geom-min="1077.2522,2030.4575"
     geom-max="1125.9988,2081.4364" /><g
     id="g643"
     transform="matrix(3.7795277,0,0,3.7795277,-1627.8516,-2070.6284)"><g
       id="g3770"
       transform="translate(-184.11255,-430.77831)"><path
         style="fill:#00ff00;stroke-width:0.0375334"
         d="m 624.23943,992.09535 c -0.10939,-0.0196 -0.34644,-0.0911 -0.52676,-0.15882 -1.2069,-0.45333 -1.99361,-1.66411 -1.90763,-2.93591 0.0732,-1.08312 0.69405,-2.01065 1.65742,-2.47619 0.4699,-0.22707 0.77079,-0.29581 1.2949,-0.29581 0.52412,0 0.82501,0.0687 1.29491,0.29581 1.85456,0.89621 2.23535,3.37978 0.73517,4.79497 -0.33011,0.3114 -0.67757,0.51696 -1.12767,0.66711 -0.29827,0.0995 -0.42418,0.1205 -0.7882,0.13146 -0.23829,0.007 -0.52274,-0.003 -0.63214,-0.0226 z m 1.1012,-0.5053 c 0.90891,-0.23026 1.65252,-0.99526 1.84206,-1.89506 0.0829,-0.39369 0.0521,-0.94136 -0.0735,-1.30747 -0.25845,-0.75302 -0.83184,-1.31977 -1.58497,-1.56658 -0.29887,-0.0979 -0.38401,-0.10951 -0.78559,-0.10668 -0.38253,0.003 -0.49687,0.0185 -0.75873,0.10444 -0.73053,0.23989 -1.3162,0.82303 -1.57552,1.56869 -0.13034,0.37482 -0.15931,0.92089 -0.0701,1.32182 0.15739,0.7074 0.6627,1.3571 1.2976,1.66836 0.17521,0.0859 0.41146,0.18048 0.525,0.21019 0.27639,0.0723 0.90255,0.0736 1.1838,0.002 z m -0.85463,-2.11704 c -0.10691,-0.0955 -0.12276,-0.1337 -0.1252,-0.30149 l -0.003,-0.19211 -0.64484,-0.64867 c -0.35465,-0.35676 -0.64483,-0.66529 -0.64483,-0.68563 0,-0.0562 0.0829,-0.12706 0.14868,-0.12706 0.0322,0 0.34307,0.28485 0.69076,0.633 l 0.63219,0.63301 0.22074,-0.004 0.22075,-0.004 0.46087,-0.45979 c 0.45626,-0.45519 0.59039,-0.53865 0.64344,-0.40041 0.0125,0.0326 0.0228,0.0692 0.0228,0.0812 0,0.012 -0.21417,0.23831 -0.47593,0.50287 l -0.47594,0.48101 -0.003,0.19165 c -0.003,0.16728 -0.0183,0.20558 -0.12519,0.30104 -0.0916,0.0819 -0.15986,0.10938 -0.27137,0.10938 -0.11149,0 -0.17972,-0.0275 -0.27136,-0.10938 z m -8.56856,1.38128 c -0.3365,-0.0411 -0.66162,-0.24432 -0.86079,-0.53811 -0.26076,-0.38464 -0.24826,-0.11709 -0.23701,-5.0717 l 0.0101,-4.46368 0.10808,-0.234 c 0.12546,-0.27162 0.38915,-0.53809 0.6532,-0.66008 0.16582,-0.0766 0.24176,-0.0825 1.19683,-0.0934 l 1.01977,-0.0116 0.0124,-0.46407 c 0.0115,-0.42997 0.0191,-0.47114 0.10285,-0.56024 0.18129,-0.19274 0.50753,-0.15809 0.64575,0.0686 0.0579,0.095 0.0705,0.19096 0.0706,0.53785 l 1.4e-4,0.42224 h 1.96745 1.96744 l 0.0125,-0.46625 c 0.0116,-0.43225 0.019,-0.47327 0.1029,-0.56243 0.19467,-0.20698 0.55519,-0.14803 0.66229,0.10829 0.0356,0.0851 0.0542,0.26508 0.0542,0.52303 v 0.39325 l 1.11662,0.0114 c 1.07259,0.011 1.12403,0.0148 1.30429,0.0977 0.25684,0.11797 0.51734,0.38479 0.64468,0.66032 l 0.10599,0.22934 0.0103,2.7118 c 0.005,1.49148 6.9e-4,2.71179 -0.0103,2.71179 -0.0114,0 -0.13847,-0.0593 -0.28246,-0.13184 l -0.2618,-0.13184 v -1.61346 -1.61346 h -5.32976 -5.32974 v 3.52964 c 0,3.39564 0.003,3.53492 0.0714,3.66889 0.0903,0.17607 0.21073,0.28873 0.38768,0.36266 0.1212,0.0506 0.49223,0.0581 2.89331,0.0581 h 2.75428 l 0.10885,0.25131 c 0.0598,0.13822 0.11308,0.26067 0.11824,0.27212 0.0129,0.0286 -5.55556,0.0265 -5.79033,-0.002 z m 10.11606,-9.37597 -0.0187,-0.6726 -0.11259,-0.15925 c -0.21369,-0.30223 -0.26802,-0.31446 -1.45442,-0.32763 l -1.04155,-0.0116 v 0.43502 c 0,0.49929 -0.0471,0.65956 -0.22039,0.74915 -0.18714,0.0968 -0.33318,0.0757 -0.47774,-0.0688 L 622.5805,981.295 v -0.49169 -0.49169 h -1.97051 -1.9705 v 0.45227 c 0,0.50596 -0.0393,0.6339 -0.22398,0.7294 -0.17136,0.0886 -0.32153,0.0715 -0.46042,-0.0525 l -0.12257,-0.10942 -0.0124,-0.5127 -0.0123,-0.51269 -0.94781,0.0122 -0.94781,0.0122 -0.1817,0.1126 c -0.11925,0.0739 -0.21173,0.16945 -0.26906,0.27802 -0.0815,0.15424 -0.0874,0.20816 -0.0874,0.79759 v 0.63216 l 5.33912,7e-5 5.33914,6e-5 z m -7.80696,4.72606 v -0.7882 h -0.82573 -0.82574 v -0.76944 -0.76943 h 0.82574 0.82573 v 0.76943 0.76944 h 0.80697 0.80697 v -0.76944 -0.76943 h 0.82574 0.82573 v 0.7687 0.76871 l -0.81635,0.0101 -0.81635,0.0101 -0.0101,0.77882 -0.0101,0.77881 h -0.8062 -0.80621 z m 0.003,2.33966 h -0.82573 -0.82574 v -0.76944 -0.76943 h 0.82574 0.82573 v 0.76943 0.76944 m 4.93117,-1.55248 h -0.82573 -0.82574 v -0.76944 -0.76943 h 0.82574 0.82573 v 0.76943 0.76944 m 1.66686,-1.58839 h -0.82573 -0.82574 v -0.76944 -0.76943 h 0.82574 0.82573 v 0.76943 0.76944"
         id="path2577-6-2"
         sodipodi:nodetypes="ssssscsscsscscsccsssscccccsssscccssssccsscccsscssscscsscccscsscscsccsscccccscssccsccccsscssscccccssscccccsssccccccccccccccccccccccccccccccccccccccccccccccc" /><path
         d="m 621.47974,988.54404 h -0.82573 -0.82574 v -0.76944 -0.76943 h 0.82574 0.82573 v 0.76943 0.76944"
         style="fill:#00ff00;stroke-width:0.0375334"
         id="path2742-3-8" /></g></g></svg>
