<?xml version="1.0" encoding="UTF-8" standalone="no"?>
<!-- Created with Inkscape (http://www.inkscape.org/) -->

<svg
   width="43.823776"
   height="43.823776"
   viewBox="0 0 5.8989958 5.8989959"
   version="1.1"
   id="svg2484"
   inkscape:version="1.2.1 (9c6d41e410, 2022-07-14, custom)"
   sodipodi:docname="chair.svg"
   xmlns:inkscape="http://www.inkscape.org/namespaces/inkscape"
   xmlns:sodipodi="http://sodipodi.sourceforge.net/DTD/sodipodi-0.dtd"
   xmlns="http://www.w3.org/2000/svg"
   xmlns:svg="http://www.w3.org/2000/svg">
  <sodipodi:namedview
     id="namedview2486"
     pagecolor="#505050"
     bordercolor="#eeeeee"
     borderopacity="1"
     inkscape:showpageshadow="0"
     inkscape:pageopacity="0"
     inkscape:pagecheckerboard="0"
     inkscape:deskcolor="#505050"
     inkscape:document-units="px"
     showgrid="false"
     inkscape:zoom="3.3638608"
     inkscape:cx="31.957327"
     inkscape:cy="13.674763"
     inkscape:window-width="1364"
     inkscape:window-height="751"
     inkscape:window-x="0"
     inkscape:window-y="15"
     inkscape:window-maximized="1"
     inkscape:current-layer="layer1" />
  <defs
     id="defs2481" />
  <g
     inkscape:label="Слой 1"
     inkscape:groupmode="layer"
     id="layer1"
     transform="translate(3.7779936,49.274041)">
    <path
       id="rect1628-1"
       style="fill:none;stroke:#f2f2f2;stroke-width:0.21679;stroke-linejoin:round"
       d="m -3.6695986,-49.165646 h 5.6822057 v 5.682206 h -5.6822057 z" />
    <path
       style="fill:#f9f9f9;stroke-width:0.0320674"
       d="m -1.1345119,-43.61457 c -0.013787,-0.02203 -0.035002,-0.362765 -0.047161,-0.75716 -0.012159,-0.394394 -0.034188,-0.728222 -0.048993,-0.741841 -0.033679,-0.03103 -0.8367947,-0.384957 -0.8735011,-0.384957 -0.014805,0 -0.037546,0.126267 -0.050468,0.280592 -0.012922,0.154325 -0.040141,0.396032 -0.060526,0.53713 -0.034951,0.242115 -0.041514,0.256538 -0.1169366,0.256538 -0.074614,0 -0.079844,-0.01058 -0.079035,-0.160339 4.833e-4,-0.08819 0.020605,-0.440416 0.04477,-0.782734 0.055123,-0.781438 0.032051,-1.506567 -0.075565,-2.375906 -0.04477,-0.36156 -0.089047,-0.702057 -0.098408,-0.756661 l -0.017043,-0.09928 0.5055872,-0.02269 c 0.2780735,-0.01252 0.6138139,-0.03714 0.7460944,-0.05479 0.1322755,-0.01765 0.269033,-0.0349 0.3039028,-0.03836 0.0584505,-0.0058 0.070223,0.04131 0.15084489,0.603013 0.048077,0.335105 0.0975633,0.779123 0.10992088,0.986709 0.0207062,0.347579 0.0277778,0.378643 0.0896573,0.392863 0.0369354,0.0085 0.2836443,0.0588 0.54820024,0.111788 0.64588565,0.129386 0.78565498,0.177152 0.78565498,0.268509 0,0.03912 -0.014245,0.0854 -0.0315935,0.102793 -0.0191291,0.01913 -0.0349512,0.443235 -0.0400896,1.072657 l -0.008496,1.041038 h -0.0801691 -0.080164 l -0.0271673,-0.68945 c -0.0155678,-0.394593 -0.0409036,-0.697946 -0.0592594,-0.709311 -0.0176537,-0.01094 -0.29365145,0.0468 -0.61332554,0.128266 l -0.5812284,0.148138 -0.0596562,0.240503 c -0.041972,0.16921 -0.0646878,0.41162 -0.0766129,0.817721 -0.0159748,0.544196 -0.030118,0.623007 -0.11208815,0.624823 -0.012159,2.45e-4 -0.033425,-0.01755 -0.047212,-0.03958 z m -0.074944,-1.82973 v -0.170244 l -0.3928224,-0.149959 c -0.2160567,-0.08248 -0.4189468,-0.159265 -0.450871,-0.170636 -0.051572,-0.01837 -0.056939,-0.0036 -0.048077,0.131772 l 0.00992,0.152442 0.4168762,0.185598 c 0.2292791,0.102076 0.4276973,0.186875 0.4409249,0.188437 0.013227,0.0015 0.024064,-0.07377 0.024064,-0.16741 z m 0.84214166,-0.07622 c 0.20743331,-0.04747 0.3661689,-0.09637 0.35273786,-0.10868 -0.01343104,-0.01231 -0.09657124,-0.04258 -0.18475316,-0.06734 -0.13671174,-0.03836 -0.1898712,-0.03846 -0.36076087,-10e-4 -0.15684305,0.03449 -0.20041762,0.05686 -0.20041762,0.102829 0,0.03231 -0.008751,0.08156 -0.0194852,0.109453 -0.0251323,0.06545 -0.0298129,0.06585 0.41265863,-0.03541 z m 0.76122982,-0.284815 c 0,-0.09363 -0.010175,-0.111508 -0.0561153,-0.09848 -0.0308812,0.0088 -0.13918427,0.03368 -0.24070566,0.05541 -0.10152139,0.02172 -0.1785006,0.04558 -0.17106774,0.05302 0.02253769,0.02254 0.31860062,0.09852 0.39573755,0.101588 0.0618744,0.0025 0.0721512,-0.01343 0.0721512,-0.111529 z m -1.86792748,-0.803436 0.52109908,-0.08987 v -0.246333 c 0,-0.253424 -0.0571888,-0.898221 -0.0818582,-0.922886 -0.013584,-0.01358 -0.8559848,0.0763 -1.0682258,0.113976 l -0.1078858,0.01913 0.018111,0.164098 c 0.00997,0.09025 0.036172,0.369776 0.058237,0.621165 0.033832,0.384922 0.047975,0.454977 0.089795,0.44382 0.02732,-0.0073 0.2841429,-0.05369 0.570743,-0.103119 z m -0.2229349,-1.311261 c 0.6048802,-0.06679 0.647829,-0.07536 0.647829,-0.129309 0,-0.06027 -0.1042686,-0.0599 -0.6828159,0.0025 -0.5262425,0.05669 -0.540981,0.06029 -0.5157368,0.126079 0.023148,0.06033 0.011701,0.06032 0.5507237,0.001 z m 0.022538,-0.239739 c 0.5718266,-0.05189 0.5932451,-0.05672 0.5932451,-0.133644 0,-0.05701 -0.01455,-0.06378 -0.1042178,-0.04854 -0.057321,0.0098 -0.3206763,0.035 -0.5852323,0.05607 -0.2645559,0.02106 -0.4923037,0.04838 -0.5061112,0.06064 -0.013787,0.01226 -0.015415,0.04757 -0.00356,0.0785 0.016382,0.04268 0.045533,0.05207 0.1213067,0.03902 0.054859,-0.0095 0.2729046,-0.03287 0.4845503,-0.05208 z"
       id="path1707-9" />
  </g>
</svg>
