<?xml version="1.0" encoding="UTF-8" standalone="no"?>
<!-- Created with Inkscape (http://www.inkscape.org/) -->

<svg
   width="49.186737"
   height="49.23967"
   viewBox="0 0 6.6208891 6.6280142"
   version="1.1"
   id="svg2484"
   inkscape:version="1.2.1 (9c6d41e410, 2022-07-14, custom)"
   sodipodi:docname="change.svg"
   xmlns:inkscape="http://www.inkscape.org/namespaces/inkscape"
   xmlns:sodipodi="http://sodipodi.sourceforge.net/DTD/sodipodi-0.dtd"
   xmlns="http://www.w3.org/2000/svg"
   xmlns:svg="http://www.w3.org/2000/svg">
  <sodipodi:namedview
     id="namedview2486"
     pagecolor="#505050"
     bordercolor="#eeeeee"
     borderopacity="1"
     inkscape:showpageshadow="0"
     inkscape:pageopacity="0"
     inkscape:pagecheckerboard="0"
     inkscape:deskcolor="#505050"
     inkscape:document-units="px"
     showgrid="false"
     inkscape:zoom="3.3638608"
     inkscape:cx="24.52539"
     inkscape:cy="24.674029"
     inkscape:window-width="1364"
     inkscape:window-height="751"
     inkscape:window-x="0"
     inkscape:window-y="15"
     inkscape:window-maximized="1"
     inkscape:current-layer="layer1" />
  <defs
     id="defs2481" />
  <g
     inkscape:label="Слой 1"
     inkscape:groupmode="layer"
     id="layer1"
     transform="translate(-34.838355,52.239118)">
    <path
       style="fill:#00ffff;stroke-width:0.0106959"
       d="m 35.527165,-45.620943 c -0.316011,-0.03353 -0.58798,-0.274415 -0.66968,-0.593143 -0.01811,-0.07062 -0.01913,-0.214179 -0.01913,-2.711122 0,-2.485094 10e-4,-2.640462 0.01882,-2.704773 0.04543,-0.164408 0.109015,-0.275398 0.22003,-0.384001 0.129609,-0.126796 0.285811,-0.198037 0.47554,-0.216876 0.07147,-0.0071 0.995571,-0.0097 2.676186,-0.0075 2.411997,0.0031 2.571211,0.0046 2.636387,0.02223 0.280851,0.07632 0.503099,0.30053 0.574671,0.579758 0.01811,0.07062 0.01913,0.213966 0.01913,2.70577 0,2.950887 0.0067,2.704412 -0.07806,2.872702 -0.127636,0.25345 -0.349197,0.408513 -0.625271,0.437598 -0.120442,0.01267 -5.108767,0.01201 -5.22866,-5.09e-4 z m 0.03587,-0.04909 c -0.0073,-0.0031 -0.01938,-0.0031 -0.02676,0 -0.0073,0.0031 -0.0015,0.0054 0.01338,0.0054 0.0147,0 0.02071,-0.0025 0.01338,-0.0054 z m 0.149741,-5.09e-4 c -0.02498,-0.002 -0.06591,-0.002 -0.09091,0 -0.02498,0.002 -0.0046,0.0041 0.04543,0.0041 0.05001,0 0.07046,-0.002 0.04548,-0.0041 z m 3.466333,-2.03e-4 c -0.601044,-0.0015 -1.587742,-0.0015 -2.192663,0 -0.604926,0.0015 -0.113162,0.0025 1.092803,0.0025 1.205966,0 1.700905,-10e-4 1.09986,-0.0025 z m 1.347154,2.03e-4 c -0.02483,-0.002 -0.06814,-0.002 -0.09626,-8.1e-5 -0.02813,0.002 -0.0078,0.0041 0.04513,0.0041 0.05295,3e-5 0.07595,-0.0015 0.05113,-0.0041 z m 0.240462,4.63e-4 c -0.01023,-0.0025 -0.02946,-0.0025 -0.04279,-1.98e-4 -0.01333,0.0025 -0.0051,0.0046 0.01857,0.0051 0.02356,1.22e-4 0.03444,-0.002 0.02422,-0.0046 z m -5.262741,-0.0098 c -0.0036,-0.0036 -0.01277,-0.0041 -0.0205,-10e-4 -0.0085,0.0036 -0.006,0.006 0.0065,0.0065 0.01129,4.63e-4 0.0176,-0.002 0.01404,-0.0056 z m 5.321446,-5.09e-4 c -0.0073,-0.0031 -0.01938,-0.0031 -0.02676,0 -0.0073,0.0031 -0.0015,0.0054 0.01338,0.0054 0.0147,0 0.02071,-0.0025 0.01338,-0.0054 z m 0.28748,-0.129289 c 0.01333,-0.01694 0.01292,-0.01735 -0.0041,-0.0041 -0.01028,0.0081 -0.01872,0.01648 -0.01872,0.01872 0,0.0088 0.0088,0.0031 0.02274,-0.0147 z m -5.969692,-0.038 c 0,-0.002 -0.01806,-0.01984 -0.04009,-0.04009 l -0.04009,-0.03688 0.03688,0.04009 c 0.03429,0.03734 0.04335,0.04503 0.04335,0.03689 z m 6.110199,-0.09836 c 0.03856,-0.05011 0.02127,-0.03399 -0.05168,0.04813 -0.03032,0.03414 -0.03734,0.04538 -0.01674,0.02676 0.01954,-0.01765 0.05032,-0.05134 0.06843,-0.07487 z m -6.245099,-0.06451 c -0.0098,-0.01491 -0.02025,-0.02452 -0.02335,-0.02147 -0.0051,0.0051 0.02808,0.04853 0.03714,0.04853 0.002,0 -0.0041,-0.01221 -0.01379,-0.02706 z m -0.103801,-0.253028 c -0.0036,-0.0085 -0.006,-0.006 -0.0065,0.0065 -4.63e-4,0.0113 0.002,0.0176 0.0056,0.01404 0.0036,-0.0036 0.0041,-0.01277 0.001,-0.0205 z m 6.50384,-3.861898 c -0.0015,-0.701518 -0.0025,-0.127544 -0.0025,1.275491 0,1.403041 0.001,1.977009 0.0025,1.275492 0.0015,-0.701523 0.0015,-1.84946 0,-2.550983 z m -6.513822,-0.100748 c -0.0015,-0.716699 -0.0025,-0.133491 -0.0025,1.296019 0,1.429511 10e-4,2.015903 0.0025,1.303091 0.0015,-0.712817 0.0015,-1.882411 0,-2.59911 z m 1.672175,3.487584 c 0.320097,-0.115319 0.585777,-0.213197 0.590402,-0.217512 0.0068,-0.0064 -0.820449,-0.684148 -0.845983,-0.693153 -0.0041,-0.0015 -0.07607,0.227188 -0.159987,0.508059 -0.08392,0.280867 -0.159499,0.533528 -0.167949,0.561474 -0.0084,0.02793 -0.01155,0.05082 -0.0069,0.05082 0.0046,0 0.27034,-0.09435 0.590436,-0.209672 z m 2.281701,-2.091529 c 0.862344,-0.924458 1.567519,-1.683734 1.567056,-1.68728 -4.63e-4,-0.0036 -0.133104,-0.129182 -0.294765,-0.279193 -0.161656,-0.15001 -0.334169,-0.310084 -0.38336,-0.355724 l -0.08943,-0.08297 -1.575828,1.696773 c -0.866704,0.933229 -1.576728,1.702166 -1.577832,1.708755 -0.002,0.01104 0.763188,0.678567 0.779189,0.67989 0.0041,3.26e-4 0.712628,-0.755791 1.574973,-1.680249 z m 2.559728,-2.68019 c -0.0025,-0.02218 -0.0041,-0.0067 -0.0041,0.03454 -4.6e-5,0.04116 0.002,0.05934 0.0041,0.04034 0.0025,-0.01898 0.0025,-0.05268 8.6e-5,-0.07487 z M 34.90429,-51.61218 c -0.0031,-0.0074 -0.0054,-0.0015 -0.0054,0.01338 0,0.0147 0.0025,0.02071 0.0054,0.01338 0.0031,-0.0074 0.0031,-0.01938 0,-0.02676 z m 0.227224,-0.371526 c 0.04467,-0.04401 0.06621,-0.06942 0.04787,-0.05642 -0.04167,0.02951 -0.149705,0.145478 -0.164988,0.177071 -0.0064,0.01328 -10e-4,0.0095 0.01226,-0.0085 0.01302,-0.01765 0.06021,-0.06812 0.104879,-0.112149 z m 6.140464,0.102763 c 0,-0.002 -0.0084,-0.01063 -0.01872,-0.01872 -0.01694,-0.01333 -0.01735,-0.01292 -0.0041,0.0041 0.01399,0.01781 0.02274,0.0235 0.02274,0.0147 z m -0.0321,-0.04192 c 0,-0.0015 -0.02045,-0.02218 -0.04548,-0.04548 l -0.04543,-0.04228 0.04228,0.04543 c 0.03933,0.04228 0.04864,0.05037 0.04864,0.04228 z m -5.994783,-0.1552 c -0.0036,-0.0031 -0.0119,-5e-6 -0.01918,0.0073 -0.01048,0.01058 -0.0093,0.0118 0.006,0.006 0.01053,-0.0041 0.01648,-0.01002 0.01318,-0.01328 z m 0.07487,-0.04279 c -0.0036,-0.0031 -0.0119,-1e-5 -0.01918,0.0073 -0.01048,0.01058 -0.0093,0.0118 0.006,0.006 0.01053,-0.0041 0.01648,-0.01002 0.01318,-0.01328 z m 0.0959,-0.03404 c 0.0036,-0.0061 -5.08e-4,-0.0078 -0.01007,-0.0041 -0.01852,0.0071 -0.02193,0.01475 -0.0065,0.01475 0.0055,0 0.01302,-0.0046 0.01658,-0.01058 z m 5.457451,-0.0066 c -0.0036,-0.0036 -0.01277,-0.0041 -0.0205,-10e-4 -0.0085,0.0036 -0.006,0.006 0.0065,0.0065 0.01129,4.63e-4 0.0176,-0.002 0.01404,-0.0056 z m -5.369355,-0.01068 c -0.0036,-0.0036 -0.01277,-0.0041 -0.0205,-10e-4 -0.0085,0.0036 -0.006,0.006 0.0065,0.0065 0.01129,4.68e-4 0.0176,-0.002 0.01404,-0.0056 z m 5.321445,-5.09e-4 c -0.0073,-0.0031 -0.01938,-0.0031 -0.02676,0 -0.0073,0.0031 -0.0015,0.0054 0.01338,0.0054 0.0147,0 0.02071,-0.0025 0.01338,-0.0054 z m -1.347688,-0.01165 c -0.719166,-0.0015 -1.895985,-0.0015 -2.615151,0 -0.719166,0.0015 -0.130759,0.0025 1.307578,0.0025 1.438333,0 2.026739,-10e-4 1.307573,-0.0025 z"
       id="path6087" />
  </g>
</svg>
