<?xml version="1.0" encoding="UTF-8" standalone="no"?>
<!-- Created with Inkscape (http://www.inkscape.org/) -->

<svg
   width="40.089542"
   height="50.096989"
   viewBox="0 0 5.3963412 6.7434155"
   version="1.1"
   id="svg2484"
   inkscape:version="1.2.1 (9c6d41e410, 2022-07-14, custom)"
   sodipodi:docname="copy.svg"
   xmlns:inkscape="http://www.inkscape.org/namespaces/inkscape"
   xmlns:sodipodi="http://sodipodi.sourceforge.net/DTD/sodipodi-0.dtd"
   xmlns="http://www.w3.org/2000/svg"
   xmlns:svg="http://www.w3.org/2000/svg">
  <sodipodi:namedview
     id="namedview2486"
     pagecolor="#505050"
     bordercolor="#eeeeee"
     borderopacity="1"
     inkscape:showpageshadow="0"
     inkscape:pageopacity="0"
     inkscape:pagecheckerboard="0"
     inkscape:deskcolor="#505050"
     inkscape:document-units="px"
     showgrid="false"
     inkscape:zoom="3.3638608"
     inkscape:cx="15.607067"
     inkscape:cy="20.214867"
     inkscape:window-width="1364"
     inkscape:window-height="751"
     inkscape:window-x="0"
     inkscape:window-y="15"
     inkscape:window-maximized="1"
     inkscape:current-layer="layer1" />
  <defs
     id="defs2481" />
  <g
     inkscape:label="Слой 1"
     inkscape:groupmode="layer"
     id="layer1"
     transform="translate(-36.047974,51.646158)">
    <path
       style="fill:#00ffff;stroke-width:0.0131727"
       d="m 36.467813,-44.91577 c -0.196877,-0.03861 -0.371735,-0.218616 -0.409098,-0.42117 -0.009,-0.04879 -0.01236,-0.847529 -0.01002,-2.390848 l 0.0036,-2.317552 0.03058,-0.07577 c 0.06022,-0.14912 0.184352,-0.265915 0.337298,-0.317344 0.05907,-0.01984 0.214428,-0.02183 1.72657,-0.02183 1.848595,0 1.715521,-0.0064 1.862133,0.08987 0.08676,0.05699 0.161239,0.149019 0.201735,0.249304 l 0.03058,0.07577 0.0036,2.317552 c 0.0025,1.543319 -10e-4,2.342038 -0.01002,2.390848 -0.03841,0.208242 -0.212337,0.383019 -0.420117,0.422177 -0.08839,0.01664 -3.261479,0.01572 -3.34671,-10e-4 z m 3.32256,-0.38428 c 0.01948,-0.01277 0.04594,-0.03917 0.0587,-0.0587 0.02198,-0.03353 0.02325,-0.159921 0.02325,-2.328094 0,-2.230036 -5.09e-4,-2.29364 -0.02503,-2.329528 -0.05392,-0.07956 0.04798,-0.07508 -1.703255,-0.07502 -1.586012,4.6e-5 -1.604933,3.46e-4 -1.648034,0.02666 -0.08713,0.05312 -0.08154,-0.109316 -0.08154,2.368681 0,1.23822 0.0036,2.270192 0.0084,2.293264 0.01048,0.05234 0.07244,0.115884 0.120198,0.123266 0.01984,0.0031 0.750622,0.0051 1.623966,0.0041 1.493486,-0.0015 1.590006,-0.0031 1.623355,-0.02468 z m 1.027785,-0.812655 c -0.02315,-0.01409 -0.0518,-0.0405 -0.06367,-0.05859 -0.02874,-0.04385 -0.02757,-0.141417 0.0025,-0.191952 0.0261,-0.04421 0.112251,-0.09253 0.164963,-0.09253 0.05295,0 0.120808,-0.0538 0.13954,-0.110644 0.01318,-0.03994 0.01587,-0.522477 0.01318,-2.324501 -0.0031,-2.093361 -0.0052,-2.276557 -0.02528,-2.30495 -0.05667,-0.08002 0.0671,-0.07416 -1.657681,-0.07843 -0.865773,-0.002 -1.59922,-3e-4 -1.629877,0.0041 -0.07892,0.0113 -0.131945,0.06727 -0.143061,0.151074 -0.01592,0.12003 -0.07991,0.186381 -0.181243,0.187913 -0.07548,0.001 -0.13687,-0.03505 -0.170966,-0.100759 -0.02412,-0.0465 -0.02534,-0.06061 -0.01272,-0.148214 0.03297,-0.228689 0.203567,-0.410705 0.423922,-0.45223 0.09716,-0.01832 3.238535,-0.01832 3.335692,0 0.207779,0.03917 0.381701,0.213931 0.420117,0.422173 0.009,0.04884 0.01236,0.847529 0.01002,2.390848 l -0.0036,2.317552 -0.03058,0.07577 c -0.08029,0.198846 -0.277214,0.339251 -0.475612,0.339119 -0.0495,-4.1e-5 -0.0871,-0.0084 -0.115492,-0.02574 z"
       id="path6150" />
  </g>
</svg>
