<?xml version="1.0" encoding="UTF-8" standalone="no"?>
<!-- Created with Inkscape (http://www.inkscape.org/) -->

<svg
   width="49.455948"
   height="49.123772"
   viewBox="0 0 6.6571268 6.6124135"
   version="1.1"
   id="svg2484"
   inkscape:version="1.2.1 (9c6d41e410, 2022-07-14, custom)"
   sodipodi:docname="edit.svg"
   xmlns:inkscape="http://www.inkscape.org/namespaces/inkscape"
   xmlns:sodipodi="http://sodipodi.sourceforge.net/DTD/sodipodi-0.dtd"
   xmlns="http://www.w3.org/2000/svg"
   xmlns:svg="http://www.w3.org/2000/svg">
  <sodipodi:namedview
     id="namedview2486"
     pagecolor="#505050"
     bordercolor="#eeeeee"
     borderopacity="1"
     inkscape:showpageshadow="0"
     inkscape:pageopacity="0"
     inkscape:pagecheckerboard="0"
     inkscape:deskcolor="#505050"
     inkscape:document-units="px"
     showgrid="false"
     inkscape:zoom="3.3638608"
     inkscape:cx="4.6078006"
     inkscape:cy="21.998532"
     inkscape:window-width="1364"
     inkscape:window-height="751"
     inkscape:window-x="0"
     inkscape:window-y="15"
     inkscape:window-maximized="1"
     inkscape:current-layer="layer1" />
  <defs
     id="defs2481" />
  <g
     inkscape:label="Слой 1"
     inkscape:groupmode="layer"
     id="layer1"
     transform="translate(-45.875421,48.502609)">
    <path
       style="fill:#00ffff;stroke-width:0.0130104"
       d="m 46.487102,-41.913629 c -0.216133,-0.05681 -0.425286,-0.229289 -0.521664,-0.430231 -0.09799,-0.204304 -0.09217,-0.03465 -0.0883,-2.571638 0.0036,-2.178006 0.0046,-2.276389 0.02773,-2.344948 0.05307,-0.156706 0.102931,-0.237791 0.216434,-0.351914 0.125809,-0.126501 0.218686,-0.181629 0.37208,-0.220859 0.09488,-0.02427 0.14649,-0.02569 0.924137,-0.02569 h 0.823649 l 0.04406,0.04406 c 0.07863,0.07863 0.07137,0.192435 -0.01608,0.251857 -0.03093,0.02106 -0.09934,0.0234 -0.853283,0.02935 l -0.81966,0.0065 -0.07773,0.03134 c -0.08915,0.03592 -0.203191,0.136238 -0.245269,0.215802 -0.07087,0.13402 -0.06625,-0.01949 -0.07049,2.341478 -0.0025,1.298172 10e-4,2.220671 0.0082,2.272497 0.0263,0.189836 0.145849,0.35053 0.310064,0.416815 l 0.07526,0.03037 h 2.432953 2.432957 l 0.07365,-0.02976 c 0.132901,-0.05371 0.233237,-0.154096 0.286864,-0.286961 0.02956,-0.07326 0.02971,-0.07712 0.03627,-0.897504 l 0.0066,-0.823919 0.04859,-0.04457 c 0.03887,-0.03556 0.05933,-0.04457 0.102076,-0.04457 0.06583,0 0.120717,0.03088 0.148566,0.08365 0.01892,0.03592 0.02065,0.125372 0.01699,0.879123 -0.0041,0.82724 -0.0046,0.840376 -0.03297,0.92374 -0.08542,0.250245 -0.286488,0.451339 -0.536962,0.537023 l -0.08457,0.0289 -2.471988,0.0025 c -2.409423,0.0025 -2.474416,0.002 -2.568057,-0.02259 z m 1.26439,-1.755402 c -0.04548,-0.02773 -0.08195,-0.08665 -0.08195,-0.132392 0,-0.03678 0.386295,-1.435133 0.411091,-1.48817 0.01007,-0.02157 0.696019,-0.716302 1.524266,-1.543781 1.105156,-1.104134 1.528275,-1.518807 1.589941,-1.558215 0.125173,-0.08001 0.238263,-0.111086 0.403862,-0.11102 0.249309,9.2e-5 0.365457,0.05848 0.619166,0.311366 0.152244,0.15174 0.19123,0.198678 0.230037,0.27698 0.12122,0.244597 0.111992,0.505623 -0.0261,0.738392 -0.03531,0.05947 -0.399741,0.432164 -1.530839,1.565434 -0.816485,0.818052 -1.505869,1.504531 -1.531963,1.525502 -0.04029,0.03236 -0.157219,0.06855 -0.775068,0.239764 -0.400194,0.110903 -0.741841,0.201613 -0.75921,0.201588 -0.01735,-2.5e-5 -0.05032,-0.0115 -0.07323,-0.02544 z m 0.767259,-0.501196 c 0.220188,-0.06096 0.40457,-0.110817 0.409728,-0.110817 0.0051,0 -0.13082,-0.140293 -0.302173,-0.311763 -0.171358,-0.171469 -0.312841,-0.310471 -0.314413,-0.308909 -0.0015,0.002 -0.05326,0.184311 -0.114866,0.406091 -0.06161,0.221775 -0.115324,0.414058 -0.119369,0.42728 -0.0057,0.01882 -0.002,0.02238 0.01669,0.01653 0.01323,-0.0046 0.204208,-0.05743 0.424396,-0.118377 z m 1.944764,-1.480142 c 0.660131,-0.6601 1.200242,-1.206021 1.200242,-1.213144 0,-0.01704 -0.757012,-0.774233 -0.774015,-0.774233 -0.01699,0 -2.413548,2.396327 -2.413548,2.413329 0,0.01704 0.757012,0.774234 0.774015,0.774234 0.0072,0 0.55317,-0.540086 1.213306,-1.200186 z m 1.561598,-1.563796 c 0.05719,-0.0604 0.116845,-0.136422 0.132566,-0.168895 0.05528,-0.114179 0.05465,-0.264973 -0.0015,-0.376288 -0.03602,-0.07136 -0.301338,-0.33572 -0.373515,-0.372178 -0.111086,-0.05613 -0.270061,-0.05625 -0.379686,-2.9e-4 -0.02757,0.01404 -0.101654,0.07502 -0.164627,0.13545 l -0.11449,0.109876 0.390233,0.391092 c 0.214627,0.2151 0.394023,0.391093 0.398653,0.391093 0.0046,0 0.05521,-0.04945 0.112403,-0.10985 z"
       id="path6085" />
  </g>
</svg>
