<?xml version="1.0" encoding="UTF-8" standalone="no"?>
<!-- Created with Inkscape (http://www.inkscape.org/) -->

<svg
   width="48.270069"
   height="51.291954"
   viewBox="0 0 6.4974988 6.9042665"
   version="1.1"
   id="svg2484"
   inkscape:version="1.2.1 (9c6d41e410, 2022-07-14, custom)"
   sodipodi:docname="entry.svg"
   xmlns:inkscape="http://www.inkscape.org/namespaces/inkscape"
   xmlns:sodipodi="http://sodipodi.sourceforge.net/DTD/sodipodi-0.dtd"
   xmlns="http://www.w3.org/2000/svg"
   xmlns:svg="http://www.w3.org/2000/svg">
  <sodipodi:namedview
     id="namedview2486"
     pagecolor="#505050"
     bordercolor="#eeeeee"
     borderopacity="1"
     inkscape:showpageshadow="0"
     inkscape:pageopacity="0"
     inkscape:pagecheckerboard="0"
     inkscape:deskcolor="#505050"
     inkscape:document-units="px"
     showgrid="false"
     inkscape:zoom="3.3638608"
     inkscape:cx="13.526124"
     inkscape:cy="8.9183238"
     inkscape:window-width="1364"
     inkscape:window-height="751"
     inkscape:window-x="0"
     inkscape:window-y="15"
     inkscape:window-maximized="1"
     inkscape:current-layer="layer1" />
  <defs
     id="defs2481" />
  <g
     inkscape:label="Слой 1"
     inkscape:groupmode="layer"
     id="layer1"
     transform="translate(-18.269611,52.675135)">
    <path
       style="fill:#f9f9f9;stroke-width:0.0135064"
       d="m 18.662883,-45.781563 c -0.08177,-0.01933 -0.206594,-0.09179 -0.259972,-0.150876 -0.02671,-0.02951 -0.06761,-0.09398 -0.09092,-0.143183 l -0.04238,-0.08945 v -3.059891 -3.059897 l 0.05057,-0.102336 c 0.05986,-0.121118 0.126735,-0.186376 0.251649,-0.245559 l 0.08946,-0.04238 h 2.329848 2.329849 l 0.0905,0.04289 c 0.115141,0.05455 0.203761,0.143173 0.258309,0.258308 l 0.04289,0.09051 0.0036,1.381332 0.0036,1.381332 -0.03348,0.03348 c -0.04253,0.04253 -0.09426,0.04263 -0.136605,3.05e-4 l -0.03317,-0.03317 v -0.912294 -0.912293 h -2.525794 -2.525795 l 0.0036,2.577402 0.0036,2.577402 0.04085,0.06611 c 0.02534,0.04095 0.06602,0.08166 0.106985,0.10699 l 0.06611,0.0409 1.101834,0.0031 1.101839,0.0031 0.127142,-0.300158 c 0.06993,-0.165085 0.153689,-0.357897 0.186127,-0.428466 l 0.05899,-0.128312 1.373853,-1.375644 c 1.487951,-1.489884 1.43321,-1.440032 1.581638,-1.440302 0.133873,-2.54e-4 0.170432,0.01944 0.337216,0.181665 0.08432,0.08201 0.166189,0.173419 0.181934,0.203135 0.0407,0.07684 0.0404,0.220788 -5.08e-4,0.303892 -0.02193,0.04436 -0.404997,0.435146 -1.41814,1.446676 l -1.388104,1.385901 -0.173113,0.07279 -0.173113,0.07279 0.841328,0.0036 0.841333,0.0036 0.07137,-0.0349 c 0.03928,-0.01918 0.08723,-0.0557 0.106609,-0.08111 0.07045,-0.09236 0.07136,-0.101944 0.072,-0.75689 5.09e-4,-0.595545 0.0015,-0.610146 0.02859,-0.644929 0.03902,-0.0496 0.107896,-0.0492 0.147217,5.08e-4 0.02834,0.03602 0.02854,0.04197 0.02462,0.678695 l -0.0041,0.64234 -0.04289,0.0905 c -0.05455,0.115141 -0.143168,0.20376 -0.258309,0.258308 l -0.0905,0.04289 -2.302839,0.002 c -1.360188,0.0015 -2.324298,-0.0031 -2.355271,-0.01028 z m 2.579157,-0.263559 c 0.06258,-0.02691 0.113772,-0.05294 0.113772,-0.05791 0,-0.0051 -0.03017,-0.03872 -0.06698,-0.07502 -0.06685,-0.06583 -0.06701,-0.0659 -0.07975,-0.03327 -0.007,0.01796 -0.03134,0.07374 -0.05401,0.123886 -0.02269,0.05016 -0.038,0.09117 -0.03403,0.09117 0.0041,0 0.05842,-0.02198 0.120996,-0.04889 z m 0.427652,-0.184692 0.102284,-0.04447 -0.178322,-0.187628 c -0.09808,-0.103195 -0.18454,-0.183781 -0.192146,-0.17908 -0.0076,0.0046 -0.03119,0.05171 -0.05244,0.104477 l -0.03861,0.09594 0.127091,0.127626 c 0.0699,0.07019 0.127717,0.12762 0.128485,0.12762 5.09e-4,0 0.04742,-0.01999 0.103674,-0.04446 z m 1.239283,-1.150771 0.96557,-0.965636 -0.202392,-0.202732 -0.202391,-0.202728 -0.969121,0.96905 -0.969121,0.96905 0.198988,0.199318 c 0.109443,0.109626 0.202117,0.199319 0.205943,0.199319 0.0041,0 0.441464,-0.434535 0.972524,-0.965641 z m 1.178035,-1.177989 c 0.03556,-0.035 0.06462,-0.06977 0.06462,-0.07725 0,-0.0075 -0.08901,-0.100845 -0.197798,-0.207469 l -0.197798,-0.193849 -0.07248,0.07158 -0.07248,0.07158 0.199196,0.199533 c 0.10956,0.109742 0.202107,0.199532 0.205658,0.199532 0.0036,0 0.03556,-0.02864 0.07108,-0.06365 z m 0.479783,-0.535639 0.0071,-0.06271 -0.132962,-0.135333 c -0.196648,-0.200153 -0.229274,-0.201181 -0.41736,-0.01308 l -0.12152,0.121526 0.20234,0.202671 0.202341,0.202677 0.126511,-0.126517 c 0.116443,-0.116443 0.127076,-0.131502 0.133583,-0.189225 z m -1.05252,-2.808798 -0.0041,-0.355642 -0.0409,-0.06607 c -0.02534,-0.0409 -0.06605,-0.08164 -0.106991,-0.10695 l -0.06611,-0.04085 h -2.304955 -2.304955 l -0.06612,0.04085 c -0.04095,0.02534 -0.08168,0.06604 -0.10699,0.10695 l -0.0409,0.06608 -0.0041,0.355642 -0.0041,0.355638 h 2.527142 2.527138 z m -4.600021,5.114353 c -0.0094,-0.0036 -0.02666,-0.02523 -0.03821,-0.04757 -0.02615,-0.05052 -0.0072,-0.107667 0.0434,-0.130698 0.02351,-0.01074 0.242594,-0.01526 0.735798,-0.01526 h 0.702311 l 0.03317,0.03317 c 0.04223,0.04228 0.04223,0.09404 0,0.136295 l -0.03317,0.03317 -0.713082,-0.001 c -0.392186,-5.09e-4 -0.720799,-0.0041 -0.730236,-0.008 z m -0.01135,-0.738422 c -0.04767,-0.04101 -0.05052,-0.110012 -0.006,-0.146063 0.0293,-0.02376 0.08125,-0.02488 1.108793,-0.02488 h 1.07803 l 0.02798,0.03556 c 0.04553,0.05789 0.035,0.115176 -0.02701,0.147253 -0.03261,0.01684 -0.193513,0.01974 -1.091628,0.01974 h -1.053411 z m -0.01216,-0.724905 c -0.03154,-0.03485 -0.03154,-0.09986 0,-0.134712 0.02437,-0.02691 0.03867,-0.02722 1.473462,-0.02722 h 1.448858 l 0.02798,0.03561 c 0.03531,0.04487 0.03531,0.07302 0,0.117913 l -0.02798,0.03561 H 20.36421 c -1.434802,0 -1.449103,-2.54e-4 -1.473462,-0.02717 z m 0.01628,-0.703654 c -0.06234,-0.03627 -0.05474,-0.141733 0.01241,-0.17233 0.02442,-0.01114 0.587334,-0.01526 2.078317,-0.01526 h 2.044825 l 0.03383,0.03042 c 0.04884,0.04391 0.0521,0.101298 0.0082,0.145193 -0.02676,0.02676 -0.04472,0.02701 -2.090109,0.02661 -1.41608,-3.05e-4 -2.070746,-0.0051 -2.087484,-0.0146 z m -0.0041,-0.73246 c -0.04767,-0.04101 -0.05052,-0.110013 -0.006,-0.146063 0.02961,-0.02396 0.109045,-0.02493 2.095736,-0.02493 2.046972,0 2.065216,2.5e-4 2.091992,0.02701 0.04391,0.04391 0.04065,0.101303 -0.0082,0.145193 l -0.03383,0.03042 H 20.9912 18.939736 Z m -0.01216,-0.724905 c -0.03154,-0.03485 -0.03154,-0.09986 0,-0.134718 0.02447,-0.02701 0.03734,-0.02722 2.100396,-0.02722 2.06308,0 2.075946,1.53e-4 2.100402,0.02722 0.03154,0.03485 0.03154,0.09986 0,0.134718 -0.02447,0.02701 -0.03734,0.02717 -2.100402,0.02717 -2.063074,0 -2.075946,-1.53e-4 -2.100396,-0.02717 z"
       id="path2101-1" />
  </g>
</svg>
