<?xml version="1.0" encoding="UTF-8" standalone="no"?>
<!-- Created with Inkscape (http://www.inkscape.org/) -->

<svg
   version="1.1"
   id="svg1363"
   xml:space="preserve"
   width="32.267857"
   height="32.333012"
   xmlns:inkscape="http://www.inkscape.org/namespaces/inkscape"
   xmlns:sodipodi="http://sodipodi.sourceforge.net/DTD/sodipodi-0.dtd"
   xmlns="http://www.w3.org/2000/svg"
   xmlns:svg="http://www.w3.org/2000/svg"><defs
     id="defs1367" /><sodipodi:namedview
     id="namedview1365"
     pagecolor="#ffffff"
     bordercolor="#666666"
     borderopacity="1.0"
     inkscape:showpageshadow="2"
     inkscape:pageopacity="0.0"
     inkscape:pagecheckerboard="0"
     inkscape:deskcolor="#d1d1d1" /><inkscape:clipboard
     style="font-variation-settings:normal;opacity:1;vector-effect:none;fill:#008080;fill-opacity:1;stroke-width:0.06696038;stroke-linecap:butt;stroke-linejoin:miter;stroke-miterlimit:4;stroke-dasharray:none;stroke-dashoffset:0;stroke-opacity:1;-inkscape-stroke:none;stop-color:#000000;stop-opacity:1"
     min="2630.6051,344.53927"
     max="2662.8729,376.87228"
     geom-min="2630.6051,344.53927"
     geom-max="2662.8729,376.87228" /><g
     id="g1369"
     transform="matrix(3.7795277,0,0,3.7795277,-3181.2044,-384.71011)"><path
       style="fill:#008080;stroke-width:0.0177166"
       d="m 841.70001,110.2633 c 0.007,-0.047 0.0631,-0.376 0.12536,-0.7317 0.0622,-0.3557 0.14975,-0.8619 0.1945,-1.125 l 0.0814,-0.4784 3.02427,-3.02563 c 3.27709,-3.2786 3.12008,-3.1304 3.2906,-3.107 0.0436,0.01 0.11311,0.028 0.1545,0.048 0.11443,0.057 1.55964,1.5038 1.61708,1.6187 0.0546,0.1092 0.0579,0.2354 0.009,0.3364 -0.024,0.049 -0.99338,1.0298 -3.06055,3.096 l -3.02547,3.02393 -0.77068,0.1348 c -1.28237,0.2244 -1.56605,0.2746 -1.60993,0.2848 -0.0409,0.01 -0.0417,0.01 -0.0298,-0.075 z m 1.1082,-0.5621 c 0.26796,-0.043 0.57889,-0.092 0.69095,-0.1083 0.11206,-0.017 0.20954,-0.035 0.21663,-0.042 0.007,-0.01 -0.25369,-0.2782 -0.57953,-0.6039 -0.32583,-0.3257 -0.59562,-0.5886 -0.59953,-0.5842 -0.004,0 -0.0326,0.1317 -0.0638,0.2827 -0.0312,0.1511 -0.0961,0.4645 -0.14418,0.6966 -0.0481,0.2321 -0.0875,0.4295 -0.0875,0.4388 0,0.01 0.0179,0.013 0.0399,0.01 0.0219,-0.01 0.2591,-0.044 0.52707,-0.088 z m 3.59202,-2.63663 c 1.2497,-1.2497 2.27219,-2.2802 2.27219,-2.29 0,-0.01 -0.31891,-0.3367 -0.7087,-0.7263 l -0.70871,-0.7086 -2.28979,2.2898 -2.28979,2.28983 0.70853,0.7087 c 0.3897,0.3898 0.71654,0.7087 0.72631,0.7087 0.01,0 1.04026,-1.0224 2.28996,-2.27213 z m 3.00746,-3.0075 0.42495,-0.4252 -0.70847,-0.7086 c -0.38966,-0.3898 -0.71642,-0.7087 -0.72614,-0.7087 -0.01,0 -0.20708,0.1893 -0.4386,0.4207 l -0.42093,0.4206 0.71304,0.7132 c 0.39217,0.3923 0.71713,0.7133 0.72212,0.7133 0.005,0 0.20031,-0.1914 0.43403,-0.4253 z"
       id="path1998" /></g></svg>
