<?xml version="1.0" encoding="UTF-8" standalone="no"?>
<!-- Created with Inkscape (http://www.inkscape.org/) -->

<svg
   width="48.263416"
   height="51.117889"
   viewBox="0 0 6.4966033 6.8808361"
   version="1.1"
   id="svg2484"
   inkscape:version="1.2.1 (9c6d41e410, 2022-07-14, custom)"
   sodipodi:docname="person.svg"
   xmlns:inkscape="http://www.inkscape.org/namespaces/inkscape"
   xmlns:sodipodi="http://sodipodi.sourceforge.net/DTD/sodipodi-0.dtd"
   xmlns="http://www.w3.org/2000/svg"
   xmlns:svg="http://www.w3.org/2000/svg">
  <sodipodi:namedview
     id="namedview2486"
     pagecolor="#505050"
     bordercolor="#eeeeee"
     borderopacity="1"
     inkscape:showpageshadow="0"
     inkscape:pageopacity="0"
     inkscape:pagecheckerboard="0"
     inkscape:deskcolor="#505050"
     inkscape:document-units="px"
     showgrid="false"
     inkscape:zoom="3.3638608"
     inkscape:cx="-5.2023555"
     inkscape:cy="6.2428267"
     inkscape:window-width="1364"
     inkscape:window-height="751"
     inkscape:window-x="0"
     inkscape:window-y="15"
     inkscape:window-maximized="1"
     inkscape:current-layer="layer1" />
  <defs
     id="defs2481" />
  <g
     inkscape:label="Слой 1"
     inkscape:groupmode="layer"
     id="layer1"
     transform="translate(-20.783567,52.314058)">
    <path
       style="fill:#00ff00;stroke-width:0.0305122"
       d="m 21.138271,-45.475514 c -0.147843,-0.05273 -0.225026,-0.12294 -0.302921,-0.27556 -0.05451,-0.106813 -0.05981,-0.158242 -0.04401,-0.427169 0.03144,-0.536483 0.205892,-0.933676 0.569899,-1.297683 0.333608,-0.333608 0.749432,-0.530485 1.20105,-0.568657 0.184097,-0.01557 0.229732,-0.01002 0.272961,0.03322 0.125082,0.125087 0.02717,0.261132 -0.187963,0.261132 -0.365162,0 -0.780741,0.187917 -1.072159,0.48481 -0.32583,0.33195 -0.488193,0.718082 -0.488193,1.161017 0,0.190975 0.0093,0.227534 0.07489,0.293086 l 0.07489,0.07489 h 2.789139 c 3.286439,0 2.94993,0.04513 2.94993,-0.395656 0,-0.479016 -0.172431,-0.858 -0.542919,-1.193267 -0.286427,-0.259204 -0.675424,-0.424884 -0.99757,-0.424884 -0.218275,0 -0.330486,-0.140095 -0.203934,-0.254625 0.07529,-0.06813 0.275535,-0.06471 0.566363,0.0097 0.611886,0.156492 1.102226,0.581081 1.340021,1.16032 0.110186,0.268407 0.141535,0.427474 0.142415,0.722677 0.001,0.366306 -0.07207,0.50896 -0.319633,0.623215 -0.115878,0.05348 -0.263238,0.05629 -2.913916,0.05566 -2.276282,-5.09e-4 -2.813366,-0.0083 -2.908309,-0.04223 z m 2.542166,-2.201231 c -0.74292,-0.197197 -1.303869,-0.890758 -1.4661,-1.812682 -0.0436,-0.24793 -0.0434,-0.759175 4.58e-4,-1.000903 0.148718,-0.820108 0.660074,-1.496925 1.31235,-1.73698 0.310511,-0.114281 0.70921,-0.115817 1.008127,-0.0036 0.458935,0.171836 0.824951,0.519705 1.070027,1.016974 0.338126,0.686047 0.387847,1.409329 0.146882,2.136711 -0.335298,1.012162 -1.237524,1.622191 -2.071708,1.400777 z m 0.839496,-0.359621 c 0.49119,-0.224874 0.844268,-0.68508 1.009491,-1.315759 0.07647,-0.291886 0.07652,-0.94988 9.6e-5,-1.251 -0.176648,-0.696069 -0.688483,-1.271126 -1.23272,-1.38499 -0.234036,-0.04899 -0.400846,-0.04182 -0.622086,0.02651 -0.398628,0.123123 -0.732399,0.43632 -0.954144,0.895326 -0.186732,0.386524 -0.237521,0.62172 -0.238411,1.103951 -10e-4,0.471663 0.04279,0.667492 0.239785,1.075867 0.222991,0.462226 0.581946,0.793948 0.985711,0.91094 0.2212,0.06409 0.601685,0.03561 0.812268,-0.0608 z"
       id="path2519-0"
       sodipodi:nodetypes="sssssssssscssssssscscsscscssssccsscssscssss" />
  </g>
</svg>
