<?xml version="1.0" encoding="UTF-8" standalone="no"?>
<!-- Created with Inkscape (http://www.inkscape.org/) -->

<svg
   width="42.570847"
   height="50.967449"
   viewBox="0 0 5.7303425 6.8605857"
   version="1.1"
   id="svg2484"
   inkscape:version="1.2.1 (9c6d41e410, 2022-07-14, custom)"
   sodipodi:docname="related.svg"
   xmlns:inkscape="http://www.inkscape.org/namespaces/inkscape"
   xmlns:sodipodi="http://sodipodi.sourceforge.net/DTD/sodipodi-0.dtd"
   xmlns="http://www.w3.org/2000/svg"
   xmlns:svg="http://www.w3.org/2000/svg">
  <sodipodi:namedview
     id="namedview2486"
     pagecolor="#505050"
     bordercolor="#eeeeee"
     borderopacity="1"
     inkscape:showpageshadow="0"
     inkscape:pageopacity="0"
     inkscape:pagecheckerboard="0"
     inkscape:deskcolor="#505050"
     inkscape:document-units="px"
     showgrid="false"
     inkscape:zoom="3.3638608"
     inkscape:cx="42.659315"
     inkscape:cy="51.429001"
     inkscape:window-width="1364"
     inkscape:window-height="751"
     inkscape:window-x="0"
     inkscape:window-y="15"
     inkscape:window-maximized="1"
     inkscape:current-layer="layer1" />
  <defs
     id="defs2481" />
  <g
     inkscape:label="Слой 1"
     inkscape:groupmode="layer"
     id="layer1"
     transform="translate(5.2417214,54.349433)">
    <path
       style="fill:#00ffff;stroke-width:0.0134098"
       d="m -4.0620075,-47.506686 c -0.4685552,-0.08494 -0.8387127,-0.362541 -1.0371157,-0.777805 -0.1885433,-0.394638 -0.1901662,-0.81908 -0.00458,-1.211592 0.032611,-0.06897 0.087566,-0.165522 0.1221513,-0.214561 0.034595,-0.04904 0.2403953,-0.26803 0.4573677,-0.486656 l 0.3944911,-0.397503 -0.029202,-0.11654 c -0.098698,-0.393972 -0.030881,-0.797488 0.1908327,-1.135564 0.072553,-0.110628 0.2028088,-0.245244 1.1139016,-1.151127 0.5674565,-0.564221 1.0717413,-1.055095 1.1206323,-1.09084 0.5907726,-0.431889 1.44757143,-0.314724 1.91159364,0.261417 0.10311378,0.128033 0.22042683,0.354875 0.26157466,0.505806 0.0653085,0.239551 0.0653085,0.514959 0,0.754509 -0.0408019,0.149685 -0.15850158,0.377825 -0.25975333,0.503522 -0.0485858,0.06034 -0.31241421,0.329636 -0.5862447,0.598429 l -0.49786945,0.488712 0.0282357,0.105587 c 0.0484332,0.181029 0.0621847,0.337526 0.0442614,0.502824 -0.0291515,0.268865 -0.12254301,0.511286 -0.27391192,0.711108 -0.041056,0.0542 -0.4748077,0.497386 -0.9638961,0.984867 -0.8999003,0.896934 -0.9552372,0.947311 -1.14404,1.041404 -0.2442669,0.121734 -0.5856291,0.171633 -0.8483739,0.124003 z m 0.4175478,-0.401578 c 0.1168348,-0.02233 0.2314311,-0.06608 0.3406957,-0.129976 0.055637,-0.03256 0.3102876,-0.277111 0.9264673,-0.889801 0.4673647,-0.464714 0.8851515,-0.888962 0.9284259,-0.942778 0.088095,-0.109555 0.1592698,-0.247833 0.1946688,-0.378206 0.035765,-0.131639 0.033018,-0.377834 -0.00565,-0.513722 -0.1018826,-0.357825 -0.3723095,-0.621038 -0.7334774,-0.713916 -0.13196,-0.03393 -0.3548085,-0.03144 -0.493306,0.0055 -0.2169113,0.05785 -0.4750061,0.23578 -0.5049411,0.348123 -0.038055,0.142837 0.087358,0.278857 0.2321027,0.251705 0.028083,-0.0052 0.076938,-0.03393 0.1186256,-0.06954 0.209794,-0.179295 0.4994161,-0.209138 0.7215218,-0.07435 0.071235,0.04324 0.1797725,0.156441 0.2189006,0.228338 0.1040702,0.191209 0.090817,0.447457 -0.032357,0.625052 -0.020452,0.02951 -0.4253825,0.440543 -0.8998342,0.913428 -0.9466545,0.943526 -0.9159361,0.91732 -1.1108388,0.947489 -0.398027,0.06161 -0.7547331,-0.295758 -0.6849476,-0.68623 0.033628,-0.188126 0.062383,-0.227855 0.4386405,-0.605918 l 0.3416777,-0.343316 -0.1408836,-0.140888 -0.1408835,-0.140884 -0.3674458,0.370107 c -0.3617682,0.364388 -0.3684075,0.37208 -0.429712,0.497503 -0.085908,0.175768 -0.107947,0.268855 -0.107947,0.455933 0,0.186966 0.022131,0.280607 0.1073772,0.454157 0.1019436,0.207561 0.309789,0.399187 0.5238412,0.482963 0.1687427,0.06604 0.3760692,0.0843 0.5592605,0.04925 z m -0.1084862,-0.803995 c 0.023911,-0.01038 0.2484183,-0.224675 0.5029722,-0.480007 l 0.4598148,-0.461235 -0.1446839,-0.01618 c -0.079579,-0.0089 -0.1893115,-0.02885 -0.2438446,-0.04431 l -0.099156,-0.02813 -0.3537249,0.353333 c -0.4169576,0.416495 -0.4366157,0.445814 -0.3851402,0.574467 0.039327,0.09825 0.1627344,0.145997 0.2637623,0.102045 z m 1.2098063,-1.383174 c 0.257932,-0.06835 0.5162761,-0.268244 0.5162761,-0.399477 0,-0.0864 -0.067511,-0.175097 -0.1502191,-0.19737 -0.072507,-0.01954 -0.1374698,0.002 -0.2252549,0.07463 -0.097935,0.08102 -0.1874699,0.123159 -0.3034144,0.142781 -0.1850482,0.03134 -0.3791879,-0.03164 -0.5121247,-0.166118 -0.085002,-0.08599 -0.114581,-0.133252 -0.1509517,-0.241219 -0.05986,-0.177692 -0.02559,-0.391388 0.087109,-0.543545 0.064052,-0.08646 1.9692454,-1.976485 2.0425819,-2.026317 0.222238,-0.151023 0.55096278,-0.113218 0.750485,0.0863 0.18026597,0.180271 0.22342338,0.447127 0.11114189,0.687258 -0.0377494,0.08075 -0.0885788,0.136554 -0.52111432,0.572228 l -0.47927457,0.482755 0.1407309,0.13869 0.1407309,0.138691 0.50522087,-0.507464 0.50522091,-0.50746 0.0621084,-0.127391 c 0.08579588,-0.175982 0.10778922,-0.269018 0.10778922,-0.455933 0,-0.18631 -0.0221307,-0.280633 -0.10607981,-0.451538 -0.10157227,-0.206863 -0.30122168,-0.39414 -0.51106647,-0.479407 -0.19107186,-0.07764 -0.4429141,-0.09409 -0.64209542,-0.04192 -0.1285667,0.03368 -0.2868851,0.118819 -0.395875,0.212949 -0.055159,0.04762 -0.5385339,0.526252 -1.074168,1.063596 -0.8419942,0.844675 -0.980685,0.989364 -1.0241527,1.068399 -0.1476092,0.268397 -0.1740592,0.561661 -0.075712,0.839577 0.054029,0.152676 0.1147489,0.247411 0.2368493,0.369506 0.1547063,0.154707 0.3206763,0.244715 0.522549,0.283385 0.1146472,0.02198 0.3296355,0.0144 0.4427106,-0.01557 z m 1.2785997,-2.219358 c 0.28243351,-0.277788 0.50432555,-0.506843 0.5216638,-0.538503 0.0371898,-0.06788 0.037902,-0.106884 0.003561,-0.178267 -0.0470595,-0.09724 -0.16360435,-0.139423 -0.25946334,-0.09393 -0.0232499,0.01104 -0.31037416,0.288223 -0.63807126,0.615986 -0.5293561,0.529463 -0.5921768,0.596679 -0.5632135,0.602647 0.017959,0.0036 0.077864,0.01002 0.1331759,0.01409 0.055317,0.0041 0.1397999,0.01888 0.1877395,0.03287 0.047924,0.01399 0.095299,0.02615 0.1052455,0.02696 0.00992,10e-4 0.2392506,-0.216016 0.5095707,-0.481889 z"
       id="path3603-5" />
  </g>
</svg>
