<?xml version="1.0" encoding="UTF-8" standalone="no"?>
<!-- Created with Inkscape (http://www.inkscape.org/) -->

<svg
   width="44.432526"
   height="44.429199"
   viewBox="0 0 5.980938 5.9804902"
   version="1.1"
   id="svg2484"
   inkscape:version="1.2.1 (9c6d41e410, 2022-07-14, custom)"
   sodipodi:docname="save.svg"
   xmlns:inkscape="http://www.inkscape.org/namespaces/inkscape"
   xmlns:sodipodi="http://sodipodi.sourceforge.net/DTD/sodipodi-0.dtd"
   xmlns="http://www.w3.org/2000/svg"
   xmlns:svg="http://www.w3.org/2000/svg">
  <sodipodi:namedview
     id="namedview2486"
     pagecolor="#505050"
     bordercolor="#eeeeee"
     borderopacity="1"
     inkscape:showpageshadow="0"
     inkscape:pageopacity="0"
     inkscape:pagecheckerboard="0"
     inkscape:deskcolor="#505050"
     inkscape:document-units="px"
     showgrid="false"
     inkscape:zoom="3.3638608"
     inkscape:cx="22.147171"
     inkscape:cy="22.295809"
     inkscape:window-width="1364"
     inkscape:window-height="751"
     inkscape:window-x="0"
     inkscape:window-y="15"
     inkscape:window-maximized="1"
     inkscape:current-layer="layer1" />
  <defs
     id="defs2481" />
  <g
     inkscape:label="Слой 1"
     inkscape:groupmode="layer"
     id="layer1"
     transform="translate(-25.34091,53.316443)">
    <path
       style="fill:#00ff00;stroke-width:0.00706971"
       d="m 25.627214,-47.348718 c -0.133939,-0.03867 -0.240446,-0.147538 -0.275214,-0.281746 -0.01002,-0.03867 -0.01109,-0.306879 -0.01109,-2.695504 0,-2.388574 10e-4,-2.656839 0.01109,-2.695504 0.03551,-0.136956 0.146942,-0.248576 0.283303,-0.283781 0.03917,-0.01017 0.257057,-0.01119 2.228958,-0.01119 1.94161,0 2.188395,0 2.211294,0.01068 0.03627,0.01526 1.220302,1.199077 1.235453,1.235351 0.0097,0.02289 0.01084,0.261432 0.01084,2.211528 0,1.971855 -10e-4,2.189703 -0.01119,2.228927 -0.03521,0.136346 -0.146821,0.247813 -0.283772,0.283324 -0.03861,0.01017 -0.306279,0.01068 -2.700072,0.01068 -2.495295,0 -2.659779,0 -2.699615,-0.01272 z m 4.648342,-1.409547 -0.0036,-1.16116 -0.01531,-0.03714 c -0.04747,-0.115791 -0.147869,-0.202534 -0.262521,-0.226903 -0.05278,-0.01119 -3.271904,-0.01119 -3.325608,0 -0.121658,0.02544 -0.228567,0.123474 -0.268366,0.246185 l -0.01506,0.0463 -10e-4,1.147016 -0.001,1.147082 h 1.947852 1.947852 z m -4.156995,0.641434 v -0.130953 l -0.129024,0.0051 -0.129025,0.0051 -0.002,0.12902 -0.002,0.129019 h 0.130948 0.130947 z m 4.685618,0.0051 -0.002,-0.129019 -0.129019,-0.0051 -0.129025,-0.0051 v 0.130953 0.130952 h 0.130948 0.130947 z m -1.078635,-3.008538 c 0.04782,-0.01933 0.104778,-0.06838 0.130643,-0.112485 0.03785,-0.06461 0.03739,-0.05372 0.03749,-0.847107 1.43e-4,-0.809678 0.0015,-0.783427 -0.04329,-0.853126 -0.02651,-0.04121 -0.05905,-0.07041 -0.107113,-0.09575 l -0.03683,-0.01933 h -1.569479 -1.569478 l -0.04085,0.02035 c -0.05042,0.02544 -0.09897,0.07636 -0.123998,0.129731 l -0.01898,0.0407 v 0.777678 0.777663 l 0.02198,0.04579 c 0.03734,0.07814 0.110018,0.134463 0.191179,0.148149 0.01887,0.0051 0.721461,0.0056 1.561344,0.0051 h 1.527064 z m -0.78132,-0.248932 c -0.03007,-0.0092 -0.0651,-0.03867 -0.07808,-0.06598 -0.01048,-0.02188 -0.0116,-0.08435 -0.0116,-0.644828 V -52.7005 l 0.01699,-0.029 c 0.0099,-0.01679 0.02981,-0.03612 0.04772,-0.0463 0.03053,-0.01781 0.03226,-0.01781 0.235766,-0.01984 0.239861,-0.0051 0.267217,0 0.307067,0.0407 0.0172,0.0173 0.02941,0.03816 0.0347,0.05907 0.0059,0.0234 0.0082,0.197752 0.0082,0.618439 0,0.652764 0.001,0.638214 -0.04584,0.679321 -0.01348,0.0117 -0.03648,0.02493 -0.05118,0.029 -0.03195,0.0086 -0.434276,0.0092 -0.463717,0 z"
       id="path3717" />
  </g>
</svg>
