<?xml version="1.0" encoding="UTF-8" standalone="no"?>
<!-- Created with Inkscape (http://www.inkscape.org/) -->

<svg
   width="42.318382"
   height="42.287933"
   viewBox="0 0 5.696359 5.6922604"
   version="1.1"
   id="svg2484"
   inkscape:version="1.2.1 (9c6d41e410, 2022-07-14, custom)"
   sodipodi:docname="scam.svg"
   xmlns:inkscape="http://www.inkscape.org/namespaces/inkscape"
   xmlns:sodipodi="http://sodipodi.sourceforge.net/DTD/sodipodi-0.dtd"
   xmlns="http://www.w3.org/2000/svg"
   xmlns:svg="http://www.w3.org/2000/svg">
  <sodipodi:namedview
     id="namedview2486"
     pagecolor="#505050"
     bordercolor="#eeeeee"
     borderopacity="1"
     inkscape:showpageshadow="0"
     inkscape:pageopacity="0"
     inkscape:pagecheckerboard="0"
     inkscape:deskcolor="#505050"
     inkscape:document-units="px"
     showgrid="false"
     inkscape:zoom="3.3638608"
     inkscape:cx="21.255338"
     inkscape:cy="21.1067"
     inkscape:window-width="1364"
     inkscape:window-height="751"
     inkscape:window-x="0"
     inkscape:window-y="15"
     inkscape:window-maximized="1"
     inkscape:current-layer="layer1" />
  <defs
     id="defs2481" />
  <g
     inkscape:label="Слой 1"
     inkscape:groupmode="layer"
     id="layer1"
     transform="translate(-25.48484,53.161436)">
    <path
       style="fill:#ff0000;stroke-width:0.0253995"
       d="m 27.814392,-47.492738 c -0.529869,-0.07709 -1.095357,-0.371694 -1.510722,-0.787054 -0.317644,-0.317644 -0.607139,-0.797652 -0.71964,-1.193226 -0.132331,-0.465325 -0.132239,-1.2126 1.94e-4,-1.676373 0.11308,-0.395931 0.40608,-0.884297 0.717217,-1.195434 0.307093,-0.307092 0.806535,-0.606834 1.195434,-0.717431 0.464994,-0.13224 1.211374,-0.13224 1.676368,0 0.706651,0.200967 1.414909,0.802968 1.739157,1.478239 0.201827,0.420325 0.252712,0.645789 0.267186,1.183916 0.01954,0.725515 -0.137429,1.259308 -0.523256,1.779669 -0.432866,0.583808 -1.109501,1.020072 -1.737082,1.120001 -0.238502,0.03795 -0.866648,0.04233 -1.104881,0.0077 z m 0.222249,-0.0293 c -0.02447,-0.0064 -0.06445,-0.0064 -0.0889,0 -0.02447,0.0064 -0.0046,0.0116 0.04446,0.0116 0.04889,0 0.0689,-0.0052 0.04446,-0.0116 z m 0.685787,0 c -0.02447,-0.0064 -0.06445,-0.0064 -0.0889,0 -0.02442,0.0064 -0.0046,0.0116 0.04447,0.0116 0.04889,0 0.06889,-0.0052 0.04446,-0.0116 z m -0.864115,-0.02325 c -0.0084,-0.0084 -0.03032,-0.0094 -0.04869,-0.002 -0.02025,0.0081 -0.01424,0.01414 0.01536,0.01536 0.02676,10e-4 0.04177,-0.0051 0.03332,-0.01333 z m 1.02921,-0.0015 c -0.01745,-0.007 -0.04604,-0.007 -0.0635,0 -0.01745,0.007 -0.0031,0.01282 0.03175,0.01282 0.0349,0 0.0492,-0.0057 0.03175,-0.01282 z m -1.15621,-0.02391 c -0.0084,-0.0084 -0.03037,-0.0094 -0.04869,-0.002 -0.02025,0.0081 -0.01424,0.01414 0.01536,0.01536 0.02676,0.001 0.04177,-0.0051 0.03332,-0.01333 z m 1.269982,0 c -0.0084,-0.0084 -0.03032,-0.0094 -0.04869,-0.002 -0.02025,0.0081 -0.01424,0.01414 0.01536,0.01536 0.02676,0.001 0.04177,-0.0051 0.03332,-0.01333 z m -1.720293,-0.137058 c -0.02096,-0.01353 -0.04955,-0.02462 -0.0635,-0.02462 -0.01399,0 -0.0082,0.01109 0.01267,0.02462 0.02096,0.01353 0.04955,0.02462 0.0635,0.02462 0.01394,0 0.0082,-0.01109 -0.01272,-0.02462 z m 2.158964,0 c 0.02096,-0.01353 0.02666,-0.02462 0.01272,-0.02462 -0.01399,0 -0.04253,0.01109 -0.0635,0.02462 -0.02096,0.01353 -0.02666,0.02462 -0.01267,0.02462 0.01394,0 0.04253,-0.01109 0.0635,-0.02462 z m -2.590757,-0.212973 c 0,-0.0054 -0.03144,-0.0289 -0.06985,-0.05231 l -0.06985,-0.04253 0.05996,0.0523 c 0.05852,0.05104 0.07974,0.06236 0.07974,0.04253 z m 3.087756,-0.06919 c 0.0095,-0.01537 -0.01272,-0.0083 -0.0494,0.01577 -0.03663,0.02401 -0.06662,0.04843 -0.06662,0.05433 0,0.01836 0.09788,-0.04075 0.116005,-0.07009 z m -3.316353,-0.0817 c 0,-0.0046 -0.03144,-0.03597 -0.06985,-0.06985 l -0.06985,-0.06158 0.06158,0.06985 c 0.05755,0.06528 0.07812,0.0815 0.07812,0.06157 z m 3.505141,-0.05523 c 0.03281,-0.03495 0.05394,-0.0635 0.04696,-0.0635 -0.007,0 -0.03953,0.02859 -0.07235,0.0635 -0.03281,0.0349 -0.05394,0.0635 -0.04696,0.0635 0.007,0 0.03953,-0.02859 0.07235,-0.0635 z m -1.962118,-0.03022 c -0.02442,-0.0064 -0.06445,-0.0064 -0.0889,0 -0.02442,0.0064 -0.0046,0.0116 0.04446,0.0116 0.04889,0 0.0689,-0.0052 0.04446,-0.0116 z m 0.431793,0 c -0.02442,-0.0064 -0.06445,-0.0064 -0.0889,0 -0.02442,0.0064 -0.0046,0.0116 0.04446,0.0116 0.04889,0 0.0689,-0.0052 0.04447,-0.0116 z m -0.635517,-0.02325 c -0.0084,-0.0084 -0.03032,-0.0094 -0.04869,-0.002 -0.02025,0.0081 -0.01424,0.01414 0.01536,0.01536 0.02676,10e-4 0.04177,-0.0051 0.03332,-0.01333 z m 0.812786,0 c -0.0084,-0.0084 -0.03037,-0.0094 -0.04869,-0.002 -0.02025,0.0081 -0.01424,0.01414 0.01536,0.01536 0.02676,10e-4 0.04177,-0.0051 0.03332,-0.01333 z m -2.304482,-0.01735 c 0,-0.0041 -0.06001,-0.06403 -0.133344,-0.133349 l -0.133348,-0.126043 0.126038,0.133349 c 0.117124,0.123906 0.140654,0.144994 0.140654,0.126043 z m 2.387562,-0.07138 c 0.184244,-0.04625 0.660385,-0.260486 0.660385,-0.297147 0,-0.0099 -0.657475,-0.675205 -1.461054,-1.478417 -1.18649,-1.185951 -1.466059,-1.453233 -1.487671,-1.422296 -0.07724,0.110577 -0.232423,0.469705 -0.279885,0.647692 -0.07515,0.281863 -0.07485,0.730658 5.09e-4,1.015982 0.195391,0.738076 0.724071,1.292534 1.439696,1.509898 0.363849,0.110516 0.751045,0.118855 1.127847,0.02427 z m 1.48587,-0.04833 c 0.0688,-0.06985 0.119373,-0.127 0.112388,-0.127 -0.007,0 -0.06899,0.05715 -0.137785,0.127 -0.0688,0.06985 -0.119374,0.126994 -0.112388,0.126994 0.007,0 0.06899,-0.05715 0.137785,-0.126994 z m -2.781254,0.02539 c -0.02096,-0.01353 -0.04955,-0.02462 -0.0635,-0.02462 -0.01394,0 -0.0082,0.01109 0.01272,0.02462 0.02096,0.01353 0.04955,0.02462 0.0635,0.02462 0.01399,0 0.0082,-0.01109 -0.01272,-0.02462 z m 1.600177,0 c 0.02096,-0.01353 0.02666,-0.02462 0.01272,-0.02462 -0.01394,0 -0.04253,0.01109 -0.0635,0.02462 -0.02096,0.01353 -0.02666,0.02462 -0.01272,0.02462 0.01394,0 0.04253,-0.01109 0.0635,-0.02462 z m -1.90497,-0.13632 c 0,-0.0051 -0.04574,-0.03958 -0.101598,-0.07656 -0.05588,-0.03699 -0.101597,-0.06177 -0.101597,-0.05509 0,0.01114 0.180851,0.140975 0.196393,0.140975 0.0036,0 0.0068,-0.0041 0.0068,-0.0093 z m 2.260562,-0.05596 c 0,-0.007 -0.02284,-4.84e-4 -0.05082,0.0145 -0.02793,0.01496 -0.05082,0.03292 -0.05082,0.03989 0,0.007 0.02284,4.78e-4 0.05082,-0.0145 0.02793,-0.01496 0.05082,-0.03292 0.05082,-0.03989 z m -3.301941,0.0062 c 0,-0.0046 -0.03144,-0.03597 -0.06985,-0.06985 l -0.06985,-0.06158 0.06158,0.06985 c 0.05755,0.06528 0.07812,0.08149 0.07812,0.06157 z m 4.317923,-0.05523 c 0.03281,-0.0349 0.05394,-0.0635 0.04696,-0.0635 -0.007,0 -0.03953,0.02859 -0.07235,0.0635 -0.03281,0.0349 -0.05394,0.0635 -0.04696,0.0635 0.007,0 0.03953,-0.02859 0.07235,-0.0635 z m -0.939782,-0.03332 c 0,-0.05613 -2.945941,-3.001914 -3.002082,-3.001914 -0.02355,0 -0.04889,0.0098 -0.0563,0.02172 -0.0074,0.01196 0.01195,0.01714 0.04294,0.01155 0.04604,-0.0083 0.325581,0.259219 1.52685,1.461521 1.212035,1.213078 1.468013,1.481129 1.45649,1.525187 -0.0077,0.02941 -0.0036,0.04706 0.0091,0.03923 0.01267,-0.0078 0.02305,-0.03358 0.02305,-0.05727 z m -2.565354,-0.01353 c 0,-0.0046 -0.02569,-0.03053 -0.05715,-0.05715 l -0.05715,-0.04838 0.04838,0.05715 c 0.04548,0.0537 0.06591,0.06871 0.06591,0.04838 z m -0.127,-0.100376 c 0,-0.0041 -0.04859,-0.05273 -0.107947,-0.107952 l -0.107947,-0.100402 0.100402,0.107946 c 0.09337,0.100392 0.115492,0.119623 0.115492,0.100408 z m -0.904021,-0.08135 c -0.02289,-0.0349 -0.04665,-0.0635 -0.05288,-0.0635 -0.01246,0 0.0115,0.04599 0.0496,0.09525 0.04375,0.05655 0.04614,0.03358 0.0031,-0.03175 z m 4.714708,-0.01409 c 0.03862,-0.07212 0.01226,-0.06035 -0.03856,0.01725 -0.02401,0.03663 -0.03109,0.05887 -0.01577,0.0494 0.01536,-0.0095 0.03978,-0.03948 0.05433,-0.06663 z m 0.07544,-0.125586 c 0.01496,-0.02793 0.02147,-0.05077 0.0145,-0.05077 -0.007,0 -0.02493,0.02289 -0.03989,0.05077 -0.01496,0.02793 -0.02147,0.05083 -0.0145,0.05083 0.007,0 0.02493,-0.02284 0.03989,-0.05083 z m -4.089325,-0.0087 c 0,-0.0046 -0.02569,-0.03052 -0.05715,-0.05715 l -0.05715,-0.04838 0.04838,0.05715 c 0.04548,0.05371 0.06591,0.06871 0.06591,0.04838 z m -0.168112,-0.219832 c -0.03699,-0.05588 -0.07211,-0.101597 -0.07806,-0.101597 -0.01287,0 0.0085,0.03836 0.07427,0.133349 0.07567,0.109279 0.07894,0.08181 0.0036,-0.03175 z m 3.608285,0.05316 c 0.0078,-0.01267 -0.0098,-0.01674 -0.03923,-0.0091 -0.04406,0.01155 -0.312109,-0.244455 -1.525186,-1.456495 -1.202297,-1.201269 -1.469865,-1.480788 -1.461522,-1.52685 0.0056,-0.03098 4.79e-4,-0.05032 -0.01155,-0.04294 -0.01196,0.0074 -0.02172,0.03271 -0.02172,0.0563 0,0.05614 2.945779,3.002082 3.001915,3.002082 0.02366,0 0.04945,-0.01038 0.05727,-0.02305 z m 0.07681,-0.288111 c 0.166942,-0.339129 0.221999,-0.573775 0.221999,-0.946136 0,-0.352936 -0.05329,-0.596455 -0.196841,-0.899427 -0.274024,-0.578369 -0.762074,-0.979566 -1.395877,-1.147454 -0.283115,-0.075 -0.732404,-0.07506 -1.015982,-1.93e-4 -0.177773,0.04696 -0.536443,0.201679 -0.647687,0.279386 -0.03093,0.02162 0.236341,0.301176 1.422292,1.487666 0.803212,0.803584 1.468501,1.461059 1.478417,1.461059 0.0099,0 0.07007,-0.105729 0.133679,-0.234947 z m -0.01185,0.184147 c 0.01496,-0.02793 0.02147,-0.05082 0.0145,-0.05082 -0.007,0 -0.02493,0.02284 -0.03989,0.05082 -0.01496,0.02793 -0.02147,0.05083 -0.0145,0.05083 0.007,0 0.02493,-0.02289 0.03989,-0.05083 z m -4.467222,-0.06794 c -0.02997,-0.05149 -0.03719,-0.035 -0.01267,0.02885 0.0087,0.02269 0.02122,0.03592 0.02773,0.02936 0.0066,-0.0065 -1.89e-4,-0.03276 -0.01506,-0.05824 z m 5.228441,-0.02086 c 0,-0.01399 -0.01109,-0.0082 -0.02462,0.01267 -0.01353,0.02096 -0.02462,0.04955 -0.02462,0.0635 0,0.01394 0.01109,0.0082 0.02462,-0.01272 0.01353,-0.02096 0.02462,-0.04955 0.02462,-0.0635 z m -4.644241,-0.258446 c -0.02997,-0.05149 -0.03719,-0.035 -0.01267,0.02885 0.0087,0.02269 0.02121,0.03592 0.02773,0.02936 0.0065,-0.0065 -1.93e-4,-0.03276 -0.01506,-0.05825 z m 4.060052,-0.02096 c 0,-0.01394 -0.01109,-0.0082 -0.02462,0.01267 -0.01353,0.02096 -0.02462,0.04955 -0.02462,0.0635 0,0.01394 0.01109,0.0083 0.02462,-0.01272 0.01353,-0.02096 0.02462,-0.04955 0.02462,-0.0635 z m -4.782388,-0.14446 c -0.0081,-0.02025 -0.01414,-0.01425 -0.01536,0.01536 -0.001,0.02676 0.0051,0.04177 0.01333,0.03332 0.0084,-0.0084 0.0094,-0.03037 0.002,-0.04869 z m 5.486307,0 c -0.0081,-0.02025 -0.01414,-0.01425 -0.01536,0.01536 -0.001,0.02676 0.0051,0.04177 0.01333,0.03332 0.0084,-0.0084 0.0094,-0.03037 0.002,-0.04869 z m -5.511704,-0.126999 c -0.0081,-0.02025 -0.01414,-0.01424 -0.01536,0.01536 -0.001,0.02676 0.0051,0.04177 0.01333,0.03332 0.0084,-0.0084 0.0094,-0.03037 0.002,-0.04869 z m 5.537101,0 c -0.0081,-0.02025 -0.01414,-0.01424 -0.01536,0.01536 -0.001,0.02676 0.0051,0.04177 0.01333,0.03332 0.0084,-0.0084 0.0094,-0.03037 0.002,-0.04869 z m -4.902112,-0.101669 c -0.0081,-0.02025 -0.01414,-0.01424 -0.01536,0.01536 -10e-4,0.02676 0.0051,0.04177 0.01333,0.03332 0.0084,-0.0084 0.0094,-0.03032 0.002,-0.04869 z m 4.267123,0 c -0.0081,-0.02025 -0.01414,-0.01424 -0.01536,0.01536 -0.001,0.02676 0.0051,0.04177 0.01333,0.03332 0.0084,-0.0084 0.0094,-0.03032 0.002,-0.04869 z m -4.927356,-0.09049 c -0.0064,-0.02447 -0.0116,-0.0046 -0.0116,0.04447 0,0.04889 0.0052,0.06889 0.0116,0.04446 0.0064,-0.02442 0.0064,-0.06445 0,-0.0889 z m 5.587904,0 c -0.0064,-0.02447 -0.01165,-0.0046 -0.01165,0.04447 0,0.04889 0.0052,0.06889 0.01165,0.04446 0.0064,-0.02442 0.0064,-0.06445 0,-0.0889 z m -4.952916,-0.126994 c -0.0064,-0.02447 -0.01165,-0.0046 -0.01165,0.04447 0,0.04889 0.0052,0.06889 0.01165,0.04446 0.0064,-0.02442 0.0064,-0.06445 0,-0.08889 z m 4.317923,0 c -0.0064,-0.02447 -0.0116,-0.0046 -0.0116,0.04447 0,0.04889 0.0052,0.06889 0.0116,0.04446 0.0064,-0.02442 0.0064,-0.06445 0,-0.08889 z m 0,-0.431793 c -0.0064,-0.02447 -0.0116,-0.0046 -0.0116,0.04447 0,0.04889 0.0052,0.0689 0.0116,0.04447 0.0064,-0.02447 0.0064,-0.06445 0,-0.0889 z m -4.317826,4.78e-4 c -0.0065,-0.02472 -0.01216,-0.01063 -0.01262,0.03129 -4.83e-4,0.04192 0.0046,0.06213 0.0117,0.04492 0.007,-0.0172 0.0074,-0.05149 10e-4,-0.0762 z m -0.635085,-0.127478 c -0.0064,-0.02447 -0.0116,-0.0046 -0.0116,0.04446 0,0.04889 0.0052,0.0689 0.0116,0.04447 0.0064,-0.02447 0.0064,-0.06445 0,-0.0889 z m 5.587904,0 c -0.0064,-0.02447 -0.01165,-0.0046 -0.01165,0.04446 0,0.04889 0.0052,0.0689 0.01165,0.04447 0.0064,-0.02447 0.0064,-0.06445 0,-0.0889 z m -4.927671,-0.03653 c -0.0081,-0.02025 -0.01414,-0.01424 -0.01536,0.01536 -10e-4,0.02676 0.0051,0.04177 0.01333,0.03332 0.0084,-0.0084 0.0094,-0.03037 0.002,-0.04869 z m 4.267123,0 c -0.0081,-0.02025 -0.01414,-0.01424 -0.01536,0.01536 -0.001,0.02676 0.0051,0.04177 0.01333,0.03332 0.0084,-0.0084 0.0094,-0.03037 0.002,-0.04869 z m -4.902112,-0.101598 c -0.0081,-0.02025 -0.01414,-0.01425 -0.01536,0.01536 -0.001,0.02676 0.0051,0.04177 0.01333,0.03332 0.0084,-0.0084 0.0094,-0.03037 0.002,-0.04869 z m 5.537101,0 c -0.0081,-0.02025 -0.01414,-0.01425 -0.01536,0.01536 -0.001,0.02676 0.0051,0.04177 0.01333,0.03332 0.0084,-0.0084 0.0094,-0.03037 0.002,-0.04869 z m -5.511704,-0.127 c -0.0081,-0.02025 -0.01414,-0.01425 -0.01536,0.01537 -0.001,0.02676 0.0051,0.04177 0.01333,0.03332 0.0084,-0.0084 0.0094,-0.03037 0.002,-0.04869 z m 5.486307,0 c -0.0081,-0.02025 -0.01414,-0.01425 -0.01536,0.01537 -0.001,0.02676 0.0051,0.04177 0.01333,0.03332 0.0084,-0.0084 0.0094,-0.03037 0.002,-0.04869 z m -4.742446,-0.185735 c 0,-0.01394 -0.01109,-0.0083 -0.02462,0.01272 -0.01353,0.02096 -0.02462,0.04955 -0.02462,0.0635 0,0.01394 0.01109,0.0082 0.02462,-0.01272 0.01353,-0.02096 0.02462,-0.04955 0.02462,-0.0635 z m 4.017007,0.02096 c -0.02997,-0.05149 -0.03719,-0.035 -0.01267,0.02885 0.0087,0.02269 0.02121,0.03592 0.02773,0.02936 0.0066,-0.0065 -1.89e-4,-0.03276 -0.01506,-0.05824 z m -4.601201,-0.300347 c 0,-0.01394 -0.01109,-0.0083 -0.02462,0.01272 -0.01353,0.02096 -0.02462,0.04955 -0.02462,0.0635 0,0.01394 0.01109,0.0083 0.02462,-0.01272 0.01353,-0.02096 0.02462,-0.04955 0.02462,-0.0635 z m 5.18539,0.02096 c -0.02997,-0.05149 -0.03719,-0.035 -0.01267,0.02885 0.0087,0.02269 0.02122,0.03592 0.02773,0.02941 0.0065,-0.0066 -1.93e-4,-0.03276 -0.01506,-0.05824 z m -4.448021,-0.03368 c 0.01496,-0.02793 0.02147,-0.05082 0.0145,-0.05082 -0.007,0 -0.02493,0.02284 -0.03989,0.05082 -0.01496,0.02793 -0.02147,0.05082 -0.0145,0.05082 0.007,0 0.02493,-0.02284 0.03989,-0.05082 z m 3.690719,-0.02737 c -0.02523,-0.04299 -0.06212,-0.09156 -0.08195,-0.107947 -0.01984,-0.01638 -0.0041,0.01877 0.0351,0.07815 0.08222,0.12467 0.114642,0.1453 0.0468,0.02981 z m -0.109387,-0.159209 c 0,-0.0046 -0.02569,-0.03052 -0.05715,-0.05715 l -0.05715,-0.04838 0.04838,0.05715 c 0.04548,0.0537 0.06591,0.06871 0.06591,0.04838 z m -0.101593,-0.125779 c 0,-0.0041 -0.04858,-0.05273 -0.107952,-0.107947 l -0.107947,-0.100402 0.100403,0.107947 c 0.09338,0.100392 0.115496,0.119618 0.115496,0.100402 z m -3.975319,-0.10988 c 0.02401,-0.03663 0.03109,-0.05887 0.01577,-0.0494 -0.0293,0.01811 -0.08846,0.116011 -0.07009,0.116011 0.0059,0 0.03032,-0.02997 0.05432,-0.06663 z m 4.712658,0.01725 c -0.01455,-0.02717 -0.03897,-0.05714 -0.05432,-0.06663 -0.01536,-0.0095 -0.0083,0.01272 0.01577,0.0494 0.05082,0.07759 0.07717,0.08936 0.03856,0.01725 z m -0.965936,-0.111778 c 0,-0.0046 -0.02569,-0.03052 -0.05715,-0.05715 l -0.05715,-0.04838 0.04838,0.05715 c 0.04548,0.05371 0.06591,0.06871 0.06591,0.04838 z m -3.581337,-0.130932 c 0.03281,-0.03495 0.05394,-0.0635 0.04696,-0.0635 -0.007,0 -0.03953,0.02859 -0.07236,0.0635 -0.03281,0.0349 -0.05394,0.0635 -0.04696,0.0635 0.007,0 0.03953,-0.02859 0.07236,-0.0635 z m 4.419521,0.05523 c 0,-0.0046 -0.03144,-0.03597 -0.06985,-0.06985 l -0.06985,-0.06157 0.06157,0.06985 c 0.05755,0.06529 0.07812,0.0815 0.07812,0.06158 z m -0.965184,-0.02671 c 0,-0.0052 -0.01999,-0.02529 -0.04446,-0.04447 -0.04029,-0.03159 -0.04116,-0.03068 -0.0096,0.0096 0.03317,0.04233 0.05404,0.05576 0.05404,0.03485 z M 27.2556,-52.192627 c 0,-0.007 -0.02284,-4.78e-4 -0.05077,0.0145 -0.02793,0.01496 -0.05083,0.03292 -0.05083,0.03989 0,0.007 0.02284,4.83e-4 0.05083,-0.0145 0.02793,-0.01496 0.05077,-0.03292 0.05077,-0.03989 z m 2.260562,0.05348 c 0,-0.0065 -0.02569,-0.02427 -0.05715,-0.03948 -0.05488,-0.02661 -0.0552,-0.0261 -0.0078,0.0118 0.05182,0.04151 0.06499,0.04711 0.06499,0.02768 z m -3.162243,-0.16599 c 0.0688,-0.06985 0.119374,-0.126995 0.112388,-0.126995 -0.007,0 -0.06899,0.05715 -0.13779,0.126995 -0.0688,0.06985 -0.119373,0.127 -0.112388,0.127 0.007,0 0.06899,-0.05715 0.13779,-0.127 z m 4.102024,0.119694 c 0,-0.0041 -0.06001,-0.06402 -0.133344,-0.133349 l -0.133349,-0.126043 0.126043,0.133349 c 0.11712,0.123911 0.14065,0.144994 0.14065,0.126043 z m -2.89555,-0.145091 c 0.02096,-0.01353 0.02666,-0.02462 0.01272,-0.02462 -0.01394,0 -0.04253,0.01109 -0.0635,0.02462 -0.02096,0.01353 -0.02666,0.02462 -0.01272,0.02462 0.01394,0 0.04253,-0.01109 0.0635,-0.02462 z m 1.600177,0 c -0.02096,-0.01353 -0.04955,-0.02462 -0.0635,-0.02462 -0.01394,0 -0.0083,0.01109 0.01272,0.02462 0.02096,0.01353 0.04955,0.02462 0.0635,0.02462 0.01394,0 0.0083,-0.01109 -0.01272,-0.02462 z m -2.590757,-0.1651 c 0.03281,-0.0349 0.05394,-0.0635 0.04696,-0.0635 -0.007,0 -0.03953,0.02859 -0.07236,0.0635 -0.03281,0.0349 -0.05394,0.0635 -0.04696,0.0635 0.007,0 0.03953,-0.02859 0.07235,-0.0635 z m 1.390098,0.04818 c -0.0084,-0.0084 -0.03032,-0.0094 -0.04869,-0.002 -0.02025,0.0081 -0.01424,0.01414 0.01536,0.01536 0.02676,0.001 0.04177,-0.0051 0.03332,-0.01333 z m 0.812786,0 c -0.0084,-0.0084 -0.03037,-0.0094 -0.04869,-0.002 -0.02025,0.0081 -0.01424,0.01414 0.01536,0.01536 0.02676,0.001 0.04177,-0.0051 0.03332,-0.01333 z m 1.403855,0.0071 c 0,-0.0046 -0.03144,-0.03597 -0.06985,-0.06985 l -0.06985,-0.06157 0.06157,0.06985 c 0.05756,0.06528 0.07812,0.0815 0.07812,0.06158 z m -2.012917,-0.03465 c -0.02442,-0.0064 -0.06445,-0.0064 -0.0889,0 -0.02442,0.0064 -0.0046,0.0116 0.04446,0.0116 0.04889,0 0.0689,-0.0052 0.04446,-0.0116 z m 0.431793,0 c -0.02442,-0.0064 -0.06445,-0.0064 -0.0889,0 -0.02442,0.0064 -0.0046,0.0116 0.04446,0.0116 0.04889,0 0.0689,-0.0052 0.04447,-0.0116 z m 1.408387,-0.115842 c -0.0146,-0.01745 -0.06458,-0.05353 -0.11106,-0.08015 -0.09962,-0.05706 -0.08301,-0.03322 0.03495,0.05021 0.09602,0.06789 0.113635,0.07482 0.0761,0.02996 z m -3.154606,-0.111763 c 0,-0.01837 -0.09789,0.04075 -0.11601,0.07009 -0.0095,0.01536 0.01272,0.0082 0.0494,-0.01577 0.03663,-0.02401 0.06663,-0.04848 0.06663,-0.05432 z m 0.431793,-0.212083 c 0.02096,-0.01353 0.02666,-0.02462 0.01272,-0.02462 -0.01399,0 -0.04253,0.01109 -0.0635,0.02462 -0.02096,0.01353 -0.02666,0.02462 -0.01267,0.02462 0.01394,0 0.04253,-0.01109 0.0635,-0.02462 z m 2.158964,0 c -0.02096,-0.01353 -0.04955,-0.02462 -0.0635,-0.02462 -0.01399,0 -0.0082,0.01109 0.01267,0.02462 0.02096,0.01353 0.0495,0.02462 0.0635,0.02462 0.01394,0 0.0082,-0.01109 -0.01272,-0.02462 z m -1.708653,-0.142344 c -0.0084,-0.0084 -0.03037,-0.0094 -0.04869,-0.002 -0.02025,0.0081 -0.01424,0.01414 0.01536,0.01536 0.02676,10e-4 0.04177,-0.0051 0.03332,-0.01333 z m 1.269982,0 c -0.0084,-0.0084 -0.03032,-0.0094 -0.04869,-0.002 -0.02025,0.0081 -0.01424,0.01414 0.01536,0.01536 0.02676,10e-4 0.04177,-0.0051 0.03332,-0.01333 z m -1.142982,-0.02539 c -0.0084,-0.0084 -0.03032,-0.0094 -0.04869,-0.002 -0.02025,0.0081 -0.01424,0.01414 0.01536,0.01537 0.02676,0.001 0.04177,-0.0051 0.03332,-0.01333 z m 1.02921,-0.0015 c -0.01745,-0.007 -0.04604,-0.007 -0.0635,0 -0.01745,0.007 -0.0031,0.01282 0.03175,0.01282 0.0349,0 0.0492,-0.0057 0.03175,-0.01282 z m -0.850882,-0.0261 c -0.02447,-0.0064 -0.06445,-0.0064 -0.0889,0 -0.02447,0.0064 -0.0046,0.0116 0.04446,0.0116 0.04889,0 0.0689,-0.0052 0.04446,-0.0116 z m 0.685787,0 c -0.02447,-0.0064 -0.06445,-0.0064 -0.0889,0 -0.02442,0.0064 -0.0046,0.0116 0.04447,0.0116 0.04889,0 0.06889,-0.0052 0.04446,-0.0116 z"
       id="path7362" />
  </g>
</svg>
