<?xml version="1.0" encoding="UTF-8" standalone="no"?>
<!-- Created with Inkscape (http://www.inkscape.org/) -->

<svg
   width="51.283623"
   height="51.315411"
   viewBox="0 0 6.9031448 6.9074239"
   version="1.1"
   id="svg2484"
   inkscape:version="1.2.1 (9c6d41e410, 2022-07-14, custom)"
   sodipodi:docname="search.svg"
   xmlns:inkscape="http://www.inkscape.org/namespaces/inkscape"
   xmlns:sodipodi="http://sodipodi.sourceforge.net/DTD/sodipodi-0.dtd"
   xmlns="http://www.w3.org/2000/svg"
   xmlns:svg="http://www.w3.org/2000/svg">
  <sodipodi:namedview
     id="namedview2486"
     pagecolor="#505050"
     bordercolor="#eeeeee"
     borderopacity="1"
     inkscape:showpageshadow="0"
     inkscape:pageopacity="0"
     inkscape:pagecheckerboard="0"
     inkscape:deskcolor="#505050"
     inkscape:document-units="px"
     showgrid="false"
     inkscape:zoom="3.3638608"
     inkscape:cx="35.524656"
     inkscape:cy="8.0264914"
     inkscape:window-width="1364"
     inkscape:window-height="751"
     inkscape:window-x="0"
     inkscape:window-y="15"
     inkscape:window-maximized="1"
     inkscape:current-layer="layer1" />
  <defs
     id="defs2481" />
  <g
     inkscape:label="Слой 1"
     inkscape:groupmode="layer"
     id="layer1"
     transform="translate(-15.315857,52.544371)">
    <path
       style="fill:#f9f9f9;stroke-width:0.0175857"
       d="m 21.321145,-45.653504 c -0.109926,-0.04106 -0.236869,-0.159249 -0.961062,-0.894914 -0.82025,-0.833254 -0.81443,-0.825831 -0.803238,-1.023802 l 0.0057,-0.101333 -0.360506,-0.360089 -0.360512,-0.360095 -0.121668,0.07289 c -0.154762,0.09272 -0.360816,0.176756 -0.57202,0.233278 -0.789989,0.211412 -1.655544,-0.03821 -2.222583,-0.640956 -0.304422,-0.323601 -0.504514,-0.723399 -0.583391,-1.165631 -0.04487,-0.2514 -0.02991,-0.694334 0.03124,-0.926808 0.204157,-0.776177 0.742177,-1.3635 1.472439,-1.607376 0.25489,-0.08513 0.452067,-0.116031 0.740274,-0.116031 0.591989,0 1.11816,0.207551 1.545613,0.609663 0.602759,0.567039 0.852368,1.432594 0.640951,2.222588 -0.05652,0.211198 -0.140553,0.417258 -0.233273,0.572015 l -0.0729,0.121673 0.36011,0.360507 0.360115,0.360506 0.09637,-0.006 c 0.207113,-0.01287 0.182785,-0.03225 1.065001,0.849753 0.439907,0.439826 0.815666,0.82954 0.835004,0.866037 0.04757,0.08976 0.04843,0.30314 0.0015,0.391699 -0.04472,0.08447 -0.406238,0.449955 -0.499676,0.505129 -0.08704,0.0514 -0.274344,0.0706 -0.363589,0.03729 z m 0.233889,-0.26858 c 0.05632,-0.02981 0.360415,-0.336168 0.388472,-0.391377 0.01074,-0.02116 0.01954,-0.06456 0.01954,-0.09651 0,-0.05315 -0.0672,-0.125286 -0.789124,-0.847214 l -0.78913,-0.78913 -0.07697,0.0096 c -0.04233,0.0053 -0.103333,0.01506 -0.135557,0.02172 -0.05772,0.01196 -0.06558,0.0051 -0.531971,-0.460059 -0.396659,-0.395661 -0.473378,-0.480251 -0.473378,-0.521944 0,-0.02915 0.02951,-0.09322 0.07135,-0.154838 0.257805,-0.379626 0.383319,-0.873313 0.336427,-1.323207 -0.108104,-1.037014 -0.955542,-1.808022 -1.99049,-1.810948 -0.549757,-0.0015 -1.042427,0.201471 -1.426118,0.5877 -0.383878,0.386417 -0.583711,0.870378 -0.583711,1.413668 0,1.478041 1.535881,2.448785 2.866602,1.811823 0.08918,-0.04269 0.209433,-0.109713 0.267222,-0.148958 0.06162,-0.04182 0.125651,-0.07136 0.154833,-0.07136 0.04167,0 0.126283,0.07671 0.521949,0.473383 0.465213,0.466378 0.472015,0.474243 0.460054,0.531966 -0.0067,0.0322 -0.01643,0.09322 -0.02172,0.135552 l -0.0096,0.07697 0.789124,0.789135 c 0.720367,0.720367 0.794167,0.789124 0.84694,0.789124 0.0318,0 0.07918,-0.01129 0.105296,-0.02508 z m -4.357738,-2.769883 c -0.741246,-0.156558 -1.286277,-0.787573 -1.345343,-1.557589 -0.01592,-0.207932 0.01516,-0.442252 0.06596,-0.496669 0.04955,-0.05309 0.126175,-0.05131 0.181705,0.0046 0.04004,0.04004 0.04263,0.05168 0.03002,0.136285 -0.02488,0.166417 -0.01124,0.468107 0.02783,0.615655 0.135924,0.513666 0.545301,0.909445 1.071386,1.035788 0.132448,0.03185 0.188192,0.03551 0.412251,0.02722 0.225749,-0.0083 0.263559,-0.0058 0.293809,0.01984 0.09864,0.08363 0.0376,0.207977 -0.114311,0.232906 -0.151425,0.02483 -0.463803,0.01597 -0.623241,-0.0177 z"
       id="path2087-6" />
  </g>
</svg>
