<?xml version="1.0" encoding="UTF-8" standalone="no"?>
<!-- Created with Inkscape (http://www.inkscape.org/) -->

<svg
   width="37.88065"
   height="38.322853"
   viewBox="0 0 5.0990082 5.158532"
   version="1.1"
   id="svg2484"
   inkscape:version="1.2.1 (9c6d41e410, 2022-07-14, custom)"
   sodipodi:docname="timetable.svg"
   xmlns:inkscape="http://www.inkscape.org/namespaces/inkscape"
   xmlns:sodipodi="http://sodipodi.sourceforge.net/DTD/sodipodi-0.dtd"
   xmlns="http://www.w3.org/2000/svg"
   xmlns:svg="http://www.w3.org/2000/svg">
  <sodipodi:namedview
     id="namedview2486"
     pagecolor="#505050"
     bordercolor="#eeeeee"
     borderopacity="1"
     inkscape:showpageshadow="0"
     inkscape:pageopacity="0"
     inkscape:pagecheckerboard="0"
     inkscape:deskcolor="#505050"
     inkscape:document-units="px"
     showgrid="false"
     inkscape:zoom="3.3638608"
     inkscape:cx="6.3914654"
     inkscape:cy="23.187642"
     inkscape:window-width="1364"
     inkscape:window-height="751"
     inkscape:window-x="0"
     inkscape:window-y="15"
     inkscape:window-maximized="1"
     inkscape:current-layer="layer1" />
  <defs
     id="defs2481" />
  <g
     inkscape:label="Слой 1"
     inkscape:groupmode="layer"
     id="layer1"
     transform="translate(0.34830785,50.566207)">
    <path
       style="fill:#f9f9f9;stroke-width:0.0107541"
       d="m 0.65697205,-45.416183 c -0.48589344,-0.0053 -0.51975086,-0.007 -0.57671069,-0.02773 -0.22007579,-0.08031 -0.38169093,-0.271291 -0.41812772,-0.49412 -0.006614,-0.04039 -0.0105312,-0.740353 -0.0104294,-1.87121 1.221e-4,-1.996506 -0.00407,-1.883299 0.069465,-2.031437 0.0469069,-0.09488 0.11707902,-0.176578 0.20025482,-0.233059 0.14966965,-0.101644 0.23110553,-0.117542 0.60205671,-0.117542 H 0.8021444 v -0.165904 -0.165909 l 0.0283375,-0.02228 c 0.0545076,-0.04289 0.11415879,-0.01714 0.12768649,0.05508 0.00407,0.01954 0.005138,0.09484 0.003561,0.167308 l -0.003561,0.131762 H 2.2002702 3.442367 l -0.00356,-0.131762 c -0.00153,-0.07247 -3.663e-4,-0.147757 0.00356,-0.167308 0.013533,-0.07223 0.073179,-0.09795 0.1276865,-0.05508 l 0.028337,0.02228 v 0.165909 0.165904 h 0.2786586 c 0.3709562,0 0.4523921,0.01587 0.6020618,0.117542 0.1245678,0.08459 0.2216071,0.231299 0.2539434,0.383914 0.023606,0.111437 0.023504,3.660806 -1.628e-4,3.773302 -0.050468,0.240274 -0.2547015,0.444553 -0.494644,0.49471 -0.064291,0.01343 -0.2934785,0.01542 -1.5701043,0.01353 -0.8221528,-0.001 -1.72710498,-0.0046 -2.01101383,-0.0079 z m 3.56102245,-0.165805 c 0.1285005,-0.03424 0.2617018,-0.137043 0.3163926,-0.244243 0.054671,-0.107159 0.05321,-0.06534 0.05321,-1.528246 v -1.363511 H 2.2001837 -0.18723009 v 1.363511 c 0,1.469042 -0.001526,1.420523 0.0550673,1.531878 0.03703712,0.07257 0.13113583,0.162894 0.21152876,0.202999 0.0685492,0.03419 0.07969086,0.03632 0.22271621,0.04238 0.0828044,0.0036 0.98534512,0.0072 2.00564142,0.0081 1.5384345,0.0015 1.8645036,-5.09e-4 1.9102709,-0.01292 z m -3.9213051,-0.745901 -1.018e-5,-0.169379 0.16670265,0.0031 0.16670775,0.0031 v 0.166163 0.166162 H 0.46339714 0.29670975 l -1.018e-5,-0.169377 z m 0.8603448,0.0025 v -0.166692 h 0.17207 0.1720598 v 0.166692 0.166686 h -0.1720598 -0.17207 z m 0.8710846,0 v -0.166692 h 0.1720649 0.17207 v 0.166692 0.166686 h -0.17207 -0.1720649 z m 0.8710795,0 v -0.166692 h 0.17207 0.1720649 v 0.166692 0.166686 h -0.1720649 -0.17207 z m 0.8710896,5.09e-4 v -0.166168 l 0.1662143,-0.0031 0.1662193,-0.0031 0.00305,0.169389 0.00305,0.169392 -0.1693736,-10e-6 -0.1693787,-2.1e-5 z m -0.154864,-0.579137 c -0.018824,-0.01379 -0.081319,-0.205409 -0.081594,-0.250271 -2.035e-4,-0.0321 0.043804,-0.06909 0.082235,-0.06909 0.039683,0 0.065598,0.02656 0.082794,0.0848 l 0.012871,0.04355 0.2404666,-0.155581 c 0.13225,-0.08557 0.249792,-0.155575 0.2612033,-0.155575 0.056599,0 0.096622,0.06297 0.071047,0.111776 -0.019587,0.03734 -0.5843826,0.404392 -0.6223203,0.404407 -0.01511,10e-6 -0.036121,-0.0063 -0.046703,-0.01399 z m -3.31871924,-0.244079 v -0.17207 h 0.16669248 0.16668739 v 0.17207 0.172065 H 0.46339714 0.29670466 Z m 0.86274614,0.0025 0.00305,-0.169374 0.1693787,-0.0031 0.1693787,-0.0031 v 0.17234 0.172339 H 1.3289211 1.1565814 Z m 0.868668,-0.0025 v -0.17207 h 0.1720649 0.17207 v 0.17207 0.172065 h -0.17207 -0.1720649 z m 0.8710795,-2.85e-4 v -0.172324 l 0.1693838,0.0031 0.1693786,0.0031 0.00305,0.169373 0.00305,0.169379 H 3.0717261 2.8993916 v -0.17234 z m -1.7349958,-0.65214 c -0.00407,-0.0041 -0.00717,-0.08138 -0.00717,-0.172069 v -0.164896 H 1.329094 1.5011589 v 0.17207 0.172063 H 1.3362623 c -0.09069,0 -0.168122,-0.0031 -0.1720649,-0.0072 z m 0.8639163,-0.164895 v -0.17207 h 0.1720649 0.17207 v 0.17207 0.172063 h -0.17207 -0.1720649 z m 0.8710795,2.8e-4 v -0.172335 H 3.071543 3.2438775 l -0.00305,0.169379 -0.00305,0.169372 -0.1693787,0.0031 -0.1693736,0.0031 z m 0.8710896,-2.8e-4 v -0.17207 h 0.1666874 0.1666874 v 0.17207 0.172063 H 3.9369753 3.7702879 Z m 0.8173096,-1.273831 c 0,-0.223225 -0.00458,-0.381361 -0.011956,-0.416724 -0.0378,-0.179671 -0.1820313,-0.323866 -0.3622515,-0.362135 -0.033883,-0.0072 -0.1702334,-0.01211 -0.336061,-0.01211 H 3.5982281 v 0.170396 c 0,0.15374 -0.00204,0.172208 -0.020401,0.18889 -0.029508,0.02671 -0.083776,0.02523 -0.1120424,-0.0031 -0.021825,-0.02177 -0.023657,-0.035 -0.025946,-0.18717 l -0.00254,-0.163716 -1.2359612,-0.0025 -1.23596128,-0.0025 -0.00407,0.166453 c -0.003561,0.154142 -0.005393,0.168188 -0.0271165,0.189902 -0.0308812,0.03088 -0.0877902,0.02991 -0.11356863,-0.002 -0.0161783,-0.01999 -0.0189256,-0.04696 -0.0189256,-0.188844 v -0.165476 H 0.52282442 c -0.1658276,0 -0.30220357,0.0051 -0.33606099,0.01211 -0.17935022,0.03805 -0.32457338,0.183262 -0.36224135,0.362129 -0.007479,0.03541 -0.0120065,0.193204 -0.0120065,0.416724 v 0.359733 H 2.1999293 4.587338 Z"
       id="path4385-6-9" />
  </g>
</svg>
