<?xml version="1.0" encoding="UTF-8" standalone="no"?>
<!-- Created with Inkscape (http://www.inkscape.org/) -->

<svg
   width="43.823776"
   height="43.823776"
   viewBox="0 0 5.8989958 5.8989959"
   version="1.1"
   id="svg2484"
   inkscape:version="1.2.1 (9c6d41e410, 2022-07-14, custom)"
   sodipodi:docname="walking.svg"
   xmlns:inkscape="http://www.inkscape.org/namespaces/inkscape"
   xmlns:sodipodi="http://sodipodi.sourceforge.net/DTD/sodipodi-0.dtd"
   xmlns="http://www.w3.org/2000/svg"
   xmlns:svg="http://www.w3.org/2000/svg">
  <sodipodi:namedview
     id="namedview2486"
     pagecolor="#505050"
     bordercolor="#eeeeee"
     borderopacity="1"
     inkscape:showpageshadow="0"
     inkscape:pageopacity="0"
     inkscape:pagecheckerboard="0"
     inkscape:deskcolor="#505050"
     inkscape:document-units="px"
     showgrid="false"
     inkscape:zoom="3.3638608"
     inkscape:cx="68.225177"
     inkscape:cy="13.972041"
     inkscape:window-width="1364"
     inkscape:window-height="751"
     inkscape:window-x="0"
     inkscape:window-y="15"
     inkscape:window-maximized="1"
     inkscape:current-layer="layer1" />
  <defs
     id="defs2481" />
  <g
     inkscape:label="Слой 1"
     inkscape:groupmode="layer"
     id="layer1"
     transform="translate(0.68512364,49.302391)">
    <path
       id="rect1725-4"
       style="fill:none;stroke:#f9f9f9;stroke-width:0.21679;stroke-linejoin:round"
       d="M -0.57672864,-49.193996 H 5.105477 v 5.682205 h -5.68220564 z" />
    <path
       style="fill:#f9f9f9;stroke-width:0.0234736"
       d="m 1.300677,-43.920195 c -0.07645,-0.04151 -0.111783,-0.101144 -0.1129582,-0.190736 -0.00102,-0.08066 0.4040455,-1.368664 0.4305158,-1.368791 0.015008,-7.1e-5 0.2867986,0.204091 0.3769138,0.283136 0.011091,0.0097 0.00356,0.06884 -0.01628,0.131324 -0.020045,0.06248 -0.1066598,0.333517 -0.1924556,0.602296 -0.1441294,0.451491 -0.1616508,0.492135 -0.2302102,0.53394 -0.087943,0.05362 -0.1679033,0.05638 -0.2555357,0.0089 z m 1.215606,-0.03968 c -0.083817,-0.08411 -0.074868,-0.03373 -0.1328045,-0.747712 l -0.027829,-0.342787 -0.3710428,-0.291001 c -0.2329929,-0.182728 -0.3818588,-0.316367 -0.4001026,-0.359179 -0.024471,-0.05748 -0.01801,-0.139484 0.041209,-0.522289 0.038665,-0.249762 0.061203,-0.454107 0.050112,-0.454107 -0.01104,0 -0.049247,0.01506 -0.084865,0.03348 -0.056085,0.029 -0.078424,0.07689 -0.1669723,0.357978 -0.1171401,0.371826 -0.129111,0.395809 -0.2154411,0.431569 -0.1132735,0.04691 -0.25472175,-0.04431 -0.25472175,-0.164301 0,-0.09795 0.25964645,-0.848201 0.30782015,-0.889451 0.071871,-0.06153 0.5357613,-0.308186 0.7205704,-0.38313 0.1500563,-0.06085 0.1815938,-0.06629 0.2511707,-0.04335 0.1002597,0.03307 0.2160821,0.163162 0.2346312,0.263498 0.00829,0.04477 -0.026303,0.33486 -0.082982,0.696018 l -0.097182,0.619232 0.1252242,0.108089 c 0.2475076,0.21365 0.3965464,0.364424 0.4074897,0.412247 0.032967,0.144053 0.102605,1.143561 0.083222,1.194549 -0.032509,0.08546 -0.1372968,0.156914 -0.2301643,0.156914 -0.060521,0 -0.1007939,-0.01954 -0.1573671,-0.07629 z m 0.3237289,-2.028322 c -0.1159598,-0.08833 -0.240782,-0.184488 -0.2773867,-0.213691 l -0.06655,-0.05309 0.028643,-0.204823 c 0.015771,-0.112653 0.032306,-0.208461 0.036732,-0.212908 0.00987,-0.0099 0.5339755,0.396709 0.6399892,0.496516 0.1292178,0.121653 0.086869,0.302794 -0.078241,0.334637 -0.06307,0.01216 -0.099461,-0.0067 -0.2832017,-0.146638 z m -0.6391752,-1.487488 c -0.1668553,-0.03816 -0.2857964,-0.175204 -0.3024427,-0.348454 -0.015008,-0.156121 0.00356,-0.219821 0.094139,-0.322981 0.308451,-0.351308 0.8551505,-0.01241 0.6876185,0.426273 -0.070335,0.184168 -0.2791164,0.290955 -0.4793148,0.245162 z"
       id="path1723-8"
       sodipodi:nodetypes="ssssssssssscssssssssssssscssssssscssssssssss" />
  </g>
</svg>
